<svg width="245" height="220" viewBox="0 0 245 220" fill="none" xmlns="http://www.w3.org/2000/svg">
<rect x="12" width="220" height="220" fill="#4C6F5A"/>
<g filter="url(#filter0_d_137_899)">
<path fill-rule="evenodd" clip-rule="evenodd" d="M59.3949 80.0725C59.3528 79.4932 59.8115 79 60.3923 79H184.762C185.35 79 185.811 79.5049 185.758 80.0905L184.252 96.6568H223.192C223.997 96.6568 224.472 97.5607 224.015 98.2241L210.281 118.161C210.046 118.502 210.046 118.954 210.281 119.295L224.015 139.232C224.472 139.895 223.997 140.799 223.192 140.799H180.972C180.42 140.799 179.972 140.351 179.972 139.799V132.951H64.2214V139.799C64.2214 140.351 63.7737 140.799 63.2214 140.799H21.0017C20.1961 140.799 19.7212 139.895 20.1782 139.232L33.9122 119.295C34.1475 118.954 34.1475 118.502 33.9122 118.161L20.1782 98.2241C19.7212 97.5607 20.1961 96.6568 21.0017 96.6568H60.6011L59.3949 80.0725ZM115.637 90.2279L115.635 84.0416C115.635 84.0107 115.646 83.9811 115.667 83.9592C115.687 83.9373 115.714 83.925 115.743 83.925H116.621C116.649 83.9251 116.675 83.9138 116.695 83.8935C116.715 83.8731 116.727 83.8453 116.729 83.8156L116.775 83.0518C116.776 83.0355 116.774 83.0191 116.769 83.0037C116.764 82.9883 116.756 82.9742 116.746 82.9623C116.736 82.9504 116.723 82.941 116.709 82.9347C116.695 82.9284 116.68 82.9253 116.665 82.9257L113.599 82.9543C113.585 82.9543 113.571 82.9574 113.557 82.9634C113.544 82.9694 113.532 82.9782 113.522 82.9893C113.512 83.0003 113.504 83.0135 113.499 83.0279C113.494 83.0423 113.491 83.0577 113.491 83.0732L113.507 83.8061C113.507 83.8366 113.519 83.8656 113.539 83.887C113.559 83.9083 113.586 83.9203 113.614 83.9203L114.506 83.9227C114.52 83.9227 114.534 83.9257 114.547 83.9315C114.56 83.9374 114.572 83.946 114.582 83.9568C114.592 83.9676 114.6 83.9805 114.606 83.9946C114.611 84.0088 114.614 84.0239 114.614 84.0393L114.62 90.2374C114.62 90.253 114.623 90.2683 114.629 90.2826C114.634 90.2969 114.642 90.3099 114.653 90.3207C114.663 90.3316 114.675 90.3401 114.688 90.3458C114.702 90.3516 114.716 90.3544 114.73 90.354L115.532 90.3445C115.56 90.3439 115.587 90.3313 115.607 90.3095C115.626 90.2877 115.637 90.2584 115.637 90.2279ZM120.044 87.0947L120.059 90.2712C120.059 90.2914 120.051 90.3107 120.038 90.325C120.025 90.3393 120.007 90.3473 119.989 90.3473L119.103 90.3568C119.085 90.3568 119.067 90.3488 119.054 90.3345C119.041 90.3203 119.033 90.3009 119.033 90.2807L119.027 83.0166C119.027 82.9968 119.034 82.9778 119.046 82.9635C119.059 82.9493 119.076 82.941 119.095 82.9404L120.004 82.9238C120.013 82.9234 120.023 82.9252 120.032 82.9289C120.04 82.9325 120.048 82.9381 120.055 82.9452C120.062 82.9523 120.067 82.9608 120.071 82.9702C120.075 82.9796 120.077 82.9897 120.077 82.9999L120.046 85.9289C120.046 85.9487 120.053 85.9677 120.066 85.9819C120.078 85.9961 120.096 86.0044 120.114 86.005L121.153 86.0574C121.162 86.0577 121.172 86.0559 121.18 86.0523C121.189 86.0486 121.197 86.043 121.204 86.0359C121.211 86.0288 121.216 86.0203 121.22 86.0109C121.223 86.0015 121.225 85.9914 121.225 85.9812L121.184 83.0237C121.183 83.0135 121.185 83.0033 121.188 82.9938C121.192 82.9843 121.197 82.9756 121.203 82.9683C121.21 82.961 121.218 82.9552 121.226 82.9512C121.235 82.9472 121.244 82.9452 121.254 82.9452L122.141 82.9238C122.151 82.9234 122.16 82.9252 122.169 82.9289C122.178 82.9325 122.186 82.9381 122.192 82.9452C122.199 82.9523 122.204 82.9608 122.208 82.9702C122.212 82.9796 122.214 82.9897 122.214 82.9999L122.209 90.2783C122.209 90.2985 122.202 90.3179 122.189 90.3322C122.176 90.3464 122.158 90.3544 122.139 90.3544H121.287C121.268 90.3544 121.25 90.3464 121.237 90.3322C121.224 90.3179 121.217 90.2985 121.217 90.2783L121.21 87.0971C121.21 87.0769 121.203 87.0576 121.189 87.0433C121.176 87.029 121.158 87.021 121.14 87.021L120.114 87.0186C120.095 87.0186 120.077 87.0266 120.064 87.0409C120.051 87.0552 120.044 87.0746 120.044 87.0947ZM127.79 89.3528L126.059 89.3481C126.036 89.3481 126.013 89.338 125.997 89.3202C125.981 89.3023 125.971 89.2781 125.971 89.2529L125.973 87.3494C125.974 87.3246 125.983 87.301 126 87.2836C126.016 87.2663 126.038 87.2566 126.061 87.2566L127.564 87.2756C127.587 87.2756 127.609 87.2659 127.625 87.2486C127.641 87.2313 127.651 87.2077 127.652 87.1828L127.658 86.3548C127.658 86.3296 127.649 86.3054 127.632 86.2875C127.616 86.2697 127.594 86.2597 127.57 86.2597L126.068 86.2549C126.045 86.2549 126.022 86.2449 126.006 86.227C125.989 86.2092 125.98 86.185 125.98 86.1597L125.987 84.0231C125.987 84.0106 125.989 83.9982 125.993 83.9867C125.998 83.9751 126.004 83.9646 126.012 83.9558C126.02 83.9469 126.03 83.9399 126.041 83.9351C126.052 83.9304 126.063 83.9279 126.074 83.9279L127.788 83.9231C127.81 83.9232 127.832 83.9138 127.848 83.897C127.865 83.8801 127.874 83.8571 127.876 83.8327L127.913 83.0309C127.914 83.018 127.912 83.0051 127.908 82.993C127.903 82.9809 127.897 82.9698 127.889 82.9605C127.881 82.9511 127.871 82.9437 127.86 82.9386C127.849 82.9335 127.837 82.9309 127.825 82.931L125.055 82.9476C125.044 82.9476 125.032 82.9501 125.022 82.9549C125.011 82.9596 125.001 82.9667 124.993 82.9755C124.985 82.9843 124.978 82.9948 124.974 83.0064C124.97 83.0179 124.967 83.0303 124.967 83.0428V90.2474C124.967 90.2727 124.977 90.2969 124.993 90.3147C125.01 90.3326 125.032 90.3426 125.055 90.3426L127.821 90.3616C127.833 90.3617 127.844 90.3591 127.855 90.354C127.866 90.3489 127.876 90.3415 127.884 90.3321C127.893 90.3228 127.899 90.3117 127.903 90.2996C127.907 90.2875 127.909 90.2746 127.909 90.2617L127.878 89.4432C127.877 89.4188 127.867 89.3958 127.851 89.379C127.834 89.3621 127.813 89.3528 127.79 89.3528ZM135.016 96.6032C135.034 96.6368 135.044 96.6756 135.047 96.7197C135.101 97.309 135.122 97.8885 135.111 98.458C135.11 98.4924 135.1 98.5259 135.082 98.5547C135.064 98.5836 135.04 98.6068 135.011 98.6219C134.982 98.6368 134.949 98.6431 134.917 98.64C134.885 98.6369 134.854 98.6245 134.828 98.6042C133.331 97.4194 131.675 97.1797 129.86 97.8847C129.43 98.0521 129.163 98.4275 129.06 99.0108C128.725 100.925 129.841 101.517 131.163 102.217L131.163 102.217C131.308 102.294 131.455 102.372 131.604 102.453C131.876 102.603 132.152 102.735 132.427 102.866C132.947 103.114 133.466 103.361 133.965 103.734C134.298 103.983 134.539 104.296 134.793 104.627L134.794 104.628C134.892 104.756 134.993 104.887 135.102 105.018C136.03 106.135 135.955 108.241 135.516 109.52C135.373 109.941 135.119 110.343 134.753 110.726C134.427 111.069 134.092 111.403 133.748 111.729C133.695 111.779 133.635 111.811 133.566 111.823C133.176 111.9 132.786 111.991 132.396 112.095C130.773 112.528 129.606 112.334 128.141 112.091L127.904 112.051C127.269 111.946 126.089 111.649 126.112 110.767C126.131 110.137 126.102 109.508 126.025 108.881C126.015 108.792 126.022 108.717 126.046 108.655C126.055 108.631 126.07 108.61 126.089 108.595C126.108 108.579 126.131 108.569 126.154 108.564C126.178 108.56 126.203 108.563 126.226 108.571C126.249 108.58 126.269 108.594 126.286 108.613C127.544 110.112 129.165 110.56 131.119 110.368C132.15 110.267 133.318 109.561 133.283 108.321C133.281 108.237 133.28 108.151 133.28 108.063V108.062C133.277 107.621 133.274 107.142 133.075 106.777C132.753 106.185 132.333 105.763 131.816 105.512C130.679 104.96 129.405 104.223 127.994 103.3C127.46 102.953 127.139 102.325 126.882 101.756C125.847 99.463 126.802 97.019 128.979 96.1258C129.713 95.8244 130.551 95.6743 131.492 95.6759C132.251 95.6774 132.723 95.6949 132.91 95.7284C133.417 95.8182 133.927 95.8814 134.438 95.918C134.699 95.9362 134.863 96.1 134.929 96.4091C134.934 96.4304 134.964 96.4951 135.016 96.6032ZM120.45 100.195C120.364 99.9126 120.263 99.5836 120.08 99.3093C119.646 98.6539 118.931 97.698 118.204 97.3319C118.164 97.3115 118.131 97.283 118.106 97.2464C118.094 97.2274 118.081 97.2092 118.067 97.1917C118.041 97.1595 118.006 97.1332 117.963 97.1128C117.883 97.0743 117.804 97.0358 117.725 96.9973L117.723 96.9968C117.136 96.711 116.565 96.4329 115.91 96.2687C115.758 96.2304 115.607 96.1903 115.458 96.1504C114.847 95.9872 114.255 95.829 113.598 95.8237C113.09 95.8198 112.574 95.8247 112.055 95.8296H112.055H112.055H112.055H112.055H112.055H112.055H112.055H112.055C110.806 95.8413 109.539 95.8532 108.326 95.7448C108.268 95.7396 108.204 95.7331 108.136 95.7261L108.136 95.7261C107.601 95.6713 106.808 95.5902 106.481 95.9246C106.433 95.9729 106.405 96.0358 106.402 96.1021C106.399 96.1683 106.421 96.2336 106.464 96.2862C106.806 96.6969 107.033 97.1646 107.145 97.6893C107.265 98.2651 107.315 99.3495 107.293 100.943C107.261 103.54 107.381 105.785 107.537 108.212C107.585 108.965 107.426 109.508 107.265 110.057C107.169 110.384 107.073 110.713 107.019 111.09C107.014 111.125 107.017 111.161 107.028 111.195C107.039 111.229 107.058 111.26 107.082 111.287C107.107 111.314 107.138 111.335 107.172 111.349C107.207 111.364 107.244 111.371 107.282 111.371C109.479 111.35 111.673 111.298 113.863 111.213C114.777 111.178 115.836 110.961 116.665 110.577C116.824 110.503 116.987 110.432 117.15 110.36C117.693 110.122 118.237 109.882 118.673 109.553C119.272 109.102 119.765 108.56 120.152 107.929C120.286 107.71 120.36 107.467 120.436 107.219C120.477 107.086 120.518 106.951 120.57 106.818C121.35 104.792 121.254 102.481 120.537 100.465C120.508 100.383 120.48 100.292 120.45 100.195ZM110.36 109.354L110.167 97.7551C110.166 97.7291 110.171 97.7034 110.181 97.6792C110.191 97.655 110.206 97.633 110.225 97.6143C110.244 97.5955 110.267 97.5805 110.292 97.5701C110.317 97.5596 110.344 97.5539 110.371 97.5533L113.016 97.5161C114.337 97.4965 115.613 97.9966 116.563 98.9064C117.513 99.8162 118.059 101.061 118.081 102.367L118.116 104.509C118.127 105.156 118.009 105.798 117.768 106.4C117.528 107.001 117.17 107.55 116.715 108.014C116.26 108.478 115.716 108.849 115.116 109.106C114.515 109.363 113.87 109.5 113.215 109.51L110.571 109.549C110.544 109.549 110.516 109.544 110.491 109.535C110.465 109.525 110.442 109.511 110.423 109.493C110.403 109.475 110.387 109.453 110.377 109.429C110.366 109.405 110.36 109.38 110.36 109.354ZM98.7609 111.793C98.5555 112.065 97.9847 112.319 97.5483 112.513C97.4153 112.572 97.2948 112.626 97.2009 112.673C96.3173 113.112 94.6838 113.392 93.7461 113.322C93.2751 113.286 92.8069 113.215 92.3416 113.11C91.7908 112.983 91.3606 112.662 90.921 112.335L90.9208 112.334C90.7604 112.215 90.5988 112.094 90.4296 111.982C89.6171 111.44 89.2002 110.39 88.8523 109.482C88.4865 108.527 88.366 107.456 88.2427 106.36C88.2138 106.103 88.1847 105.845 88.1523 105.586C88.0761 104.98 88.0272 104.358 87.9779 103.732L87.9779 103.732V103.732C87.9222 103.025 87.866 102.312 87.7698 101.608C87.7473 101.442 87.7295 101.231 87.7095 100.994C87.651 100.299 87.5738 99.3818 87.3031 98.7255C87.1648 98.3925 87.0799 98.103 87.0481 97.8571C87.0434 97.8203 87.0317 97.7849 87.0139 97.7532C86.996 97.7214 86.9724 97.6941 86.9445 97.6727C86.7961 97.5576 86.7499 97.4035 86.8061 97.2105C86.8235 97.1498 86.8616 97.1164 86.9206 97.1101L90.2718 96.8043C90.3055 96.8011 90.3393 96.8055 90.3714 96.8171C90.4034 96.8287 90.4328 96.8475 90.4578 96.8721C90.4827 96.8966 90.5028 96.9265 90.5165 96.9599C90.5302 96.9932 90.5374 97.0293 90.5375 97.0658C90.5402 97.2647 90.4793 97.4673 90.4228 97.6551C90.3892 97.7671 90.3571 97.8738 90.341 97.9715L90.3302 98.0399C90.2588 98.492 90.196 98.8896 90.235 99.3698C90.2605 99.6675 90.2705 99.9706 90.2804 100.274V100.274C90.2975 100.795 90.3146 101.317 90.4101 101.816C90.5153 102.367 90.5555 102.921 90.5933 103.442L90.5934 103.443C90.6107 103.682 90.6276 103.914 90.6499 104.136C90.6796 104.437 90.7027 104.786 90.7277 105.164C90.8809 107.477 91.1065 110.885 93.3745 111.184C95.023 111.403 96.7882 111.326 97.6741 109.564C97.8318 109.249 98.0328 108.305 98.0609 107.904C98.1399 106.756 98.0287 105.64 97.9178 104.527C97.8801 104.15 97.8425 103.772 97.8124 103.394C97.8045 103.29 97.7764 103.185 97.7478 103.078C97.7142 102.952 97.6798 102.823 97.6763 102.689C97.6684 102.272 97.6083 101.834 97.552 101.424L97.552 101.424L97.5518 101.422C97.5152 101.155 97.4802 100.9 97.4623 100.67C97.4515 100.53 97.442 100.391 97.4325 100.252C97.3927 99.6693 97.3534 99.0949 97.2226 98.5388C97.0425 97.7747 96.8055 97.0549 96.5117 96.3795C96.4959 96.3422 96.4888 96.3012 96.4911 96.2602C96.4935 96.2193 96.5051 96.1796 96.5251 96.1449C96.5451 96.1101 96.5726 96.0814 96.6054 96.0613C96.6381 96.041 96.675 96.0301 96.7126 96.0294C97.149 96.0201 97.5279 95.9912 97.8491 95.943C98.5535 95.8371 99.2528 95.7485 99.9471 95.6769C99.977 95.6736 100.007 95.678 100.035 95.6899C100.063 95.7016 100.088 95.7204 100.108 95.7446C100.129 95.769 100.143 95.798 100.151 95.8296C100.159 95.8613 100.16 95.8945 100.155 95.9266C100.121 96.1146 100.079 96.2944 100.037 96.4712C99.9463 96.8584 99.8589 97.2312 99.8693 97.6447C99.9023 99.1223 100.046 100.582 100.19 102.039C100.375 103.921 100.56 105.8 100.507 107.713C100.491 108.306 100.339 108.832 100.182 109.379L100.182 109.379C100.147 109.502 100.111 109.625 100.077 109.75C99.9657 110.156 99.7734 110.476 99.5737 110.81L99.5737 110.81C99.4858 110.957 99.3964 111.106 99.3119 111.265C99.2643 111.355 99.1575 111.44 99.0445 111.529C98.9418 111.611 98.834 111.696 98.7609 111.793ZM155.164 100.126C154.77 99.4045 153.655 98.3406 152.968 97.9695C150.393 96.5748 147.294 96.1859 144.556 97.3192C143.607 97.7125 142.985 98.0299 142.691 98.2713C142.443 98.474 142.092 98.9106 141.639 99.5811C140.97 100.568 140.546 101.411 140.367 102.111C140.186 102.809 140.021 103.51 139.872 104.214C139.638 105.321 139.792 106.123 139.971 107.056C140.013 107.275 140.056 107.501 140.096 107.739C140.184 108.258 140.432 108.742 140.674 109.215C140.788 109.44 140.902 109.661 140.996 109.883C141.107 110.145 141.274 110.379 141.486 110.569C141.614 110.683 141.738 110.797 141.86 110.91L141.861 110.91L141.861 110.91C142.409 111.416 142.941 111.905 143.748 112.324C145.617 113.291 147.887 113.531 149.934 113.18C151.49 112.911 154.119 111.584 154.813 110.073C154.856 109.976 154.92 109.857 155.005 109.715C155.632 108.68 156.043 107.479 156.239 106.112C156.308 105.632 156.364 105.151 156.409 104.668C156.554 103.139 155.887 101.447 155.164 100.126ZM143.665 101.199C144.953 98.9403 146.964 98.1134 149.697 98.7183C151.709 99.1631 153.165 101.135 153.355 103.106C153.467 104.277 153.451 105.835 153.165 106.957C152.596 109.19 150.85 111.324 148.371 111.447C147.531 111.489 146.718 111.39 145.933 111.15C145.384 110.982 144.907 110.69 144.502 110.274C144.031 109.787 143.637 109.245 143.322 108.649C143.04 108.114 142.863 107.482 142.789 106.751C142.718 106.033 142.693 105.312 142.716 104.588C142.73 104.126 142.82 103.63 142.984 103.101C143.024 102.972 143.062 102.841 143.101 102.708C143.254 102.183 143.411 101.646 143.665 101.199ZM161.054 113.17C161.073 113.092 161.115 113.025 161.179 112.971C161.243 112.916 161.282 112.846 161.296 112.76L162.743 104.242C162.753 104.18 162.782 104.131 162.83 104.095C162.869 104.067 162.888 104.019 162.888 103.952C162.889 103.508 162.952 103.036 163.013 102.574C163.065 102.184 163.116 101.802 163.128 101.451C163.132 101.323 163.139 101.187 163.147 101.046C163.183 100.365 163.226 99.5703 162.93 99.0269C162.911 98.9905 162.9 98.9492 162.898 98.9069C162.896 98.8647 162.904 98.8226 162.92 98.7842C162.936 98.7459 162.961 98.7126 162.992 98.6871C163.022 98.6616 163.058 98.6448 163.096 98.6381C163.402 98.5862 163.631 98.6478 163.853 98.7077C163.952 98.7342 164.05 98.7605 164.152 98.7763C164.838 98.8871 165.524 99.0027 166.208 99.1229C166.769 99.2236 166.977 99.5397 167.102 100.156C167.366 101.446 167.727 102.516 168.107 103.645L168.109 103.652C168.16 103.802 168.21 103.952 168.261 104.104C168.389 104.488 168.547 104.92 168.714 105.378L168.714 105.378L168.714 105.378L168.714 105.379L168.715 105.379L168.715 105.38C169.037 106.261 169.394 107.238 169.64 108.158C169.754 108.586 169.899 108.993 170.045 109.402C170.141 109.673 170.238 109.944 170.327 110.224C170.373 110.37 170.373 110.529 170.373 110.678V110.678C170.373 110.81 170.373 110.934 170.405 111.036C170.621 111.728 170.797 112.431 170.935 113.146C171.004 113.509 171.184 113.676 171.472 113.647C171.508 113.644 171.541 113.626 171.565 113.596C171.589 113.567 171.601 113.528 171.599 113.488C171.594 113.375 171.584 113.266 171.575 113.16C171.554 112.933 171.535 112.716 171.563 112.484C171.678 111.533 171.727 110.579 171.709 109.622C171.707 109.537 171.727 109.46 171.767 109.39C171.885 109.182 171.936 108.954 171.921 108.706C171.916 108.633 171.93 108.564 171.959 108.5C172.171 108.026 172.258 107.263 172.331 106.622C172.353 106.426 172.374 106.242 172.397 106.081C172.4 106.053 172.493 105.498 172.68 104.416C172.815 103.624 172.966 101.666 172.669 100.945C172.643 100.883 172.635 100.813 172.643 100.746C172.653 100.678 172.68 100.614 172.72 100.563C172.762 100.512 172.815 100.474 172.875 100.456C172.935 100.437 172.998 100.438 173.058 100.458C173.913 100.747 174.787 100.87 175.681 100.828C175.741 100.825 175.8 100.838 175.853 100.868C175.907 100.897 175.952 100.941 175.986 100.995C176.02 101.049 176.041 101.112 176.046 101.177C176.052 101.243 176.043 101.309 176.019 101.369C175.924 101.606 175.795 101.818 175.631 102.003C175.58 102.063 175.549 102.132 175.536 102.212C175.489 102.493 175.39 102.73 175.292 102.961C175.201 103.177 175.112 103.388 175.069 103.629C175.004 103.986 174.933 104.345 174.862 104.703L174.862 104.704C174.734 105.356 174.605 106.007 174.513 106.645C174.113 109.42 173.83 111.222 173.666 112.053C173.41 113.336 173.267 114.415 173.237 115.289C173.222 115.67 173.3 116.053 173.379 116.438L173.379 116.439L173.379 116.439L173.379 116.439L173.379 116.439C173.417 116.623 173.455 116.807 173.483 116.992C173.488 117.024 173.487 117.058 173.479 117.09C173.471 117.122 173.457 117.152 173.437 117.177C173.417 117.202 173.392 117.223 173.365 117.236C173.337 117.25 173.307 117.257 173.277 117.256C172.801 117.247 172.317 117.133 171.883 117.03C171.644 116.974 171.42 116.921 171.22 116.891C171.138 116.879 171.054 116.868 170.969 116.858C170.449 116.793 169.909 116.727 169.757 116.249C169.694 116.053 169.646 115.855 169.599 115.659C169.546 115.438 169.493 115.22 169.421 115.013C168.978 113.743 168.52 112.48 168.048 111.224C167.973 111.024 167.915 110.818 167.874 110.605C167.86 110.53 167.83 110.464 167.785 110.406C167.557 110.119 167.474 109.796 167.393 109.481C167.344 109.291 167.296 109.105 167.217 108.931C166.918 108.268 166.741 107.585 166.564 106.901L166.564 106.9L166.564 106.899C166.486 106.599 166.408 106.298 166.32 105.999C165.966 104.795 165.718 103.566 165.577 102.31C165.545 102.026 165.413 101.882 165.179 101.879C165.136 101.879 165.096 101.896 165.064 101.928C165.033 101.96 165.014 102.004 165.011 102.05C164.963 102.832 164.928 103.603 164.909 104.362C164.903 104.594 164.847 104.838 164.792 105.078L164.792 105.079L164.792 105.079C164.75 105.262 164.709 105.443 164.69 105.615C164.563 106.791 164.379 107.952 164.184 109.193L164.184 109.193C164.03 110.165 163.869 111.186 163.721 112.303C163.589 113.289 163.613 114.17 163.729 115.1C163.734 115.137 163.731 115.175 163.72 115.21C163.709 115.246 163.691 115.278 163.667 115.304C163.642 115.331 163.613 115.35 163.581 115.361C163.548 115.373 163.514 115.375 163.481 115.369L160.546 114.847C160.506 114.839 160.469 114.821 160.438 114.793C160.407 114.765 160.383 114.729 160.368 114.688C160.354 114.647 160.35 114.602 160.356 114.558C160.362 114.515 160.378 114.474 160.403 114.439C160.669 114.067 160.939 113.647 161.054 113.17ZM71.8606 100.31C71.8312 100.29 71.7955 100.282 71.7612 100.29L68.3311 100.992C68.2925 101 68.2566 101.019 68.2266 101.046C68.1967 101.073 68.1737 101.108 68.16 101.147C68.1462 101.186 68.1422 101.228 68.1481 101.27C68.1541 101.311 68.1699 101.35 68.194 101.383C69.0869 102.615 69.3078 104.069 69.5409 105.603L69.5409 105.603L69.5409 105.604C69.6056 106.029 69.6711 106.46 69.7522 106.895C69.8539 107.441 69.9437 107.99 70.0218 108.541C70.2148 109.903 70.4403 111.26 70.6981 112.612L70.7192 112.722L70.7192 112.722C70.9988 114.194 71.2573 115.555 70.8153 117.002C70.7828 117.109 70.8145 117.184 70.9103 117.226C70.981 117.257 71.0842 117.264 71.2197 117.247C72.3822 117.096 73.5212 116.879 74.6366 116.595C74.6598 116.589 74.6813 116.577 74.6988 116.56C74.7163 116.542 74.7293 116.52 74.7364 116.496C74.7436 116.472 74.7446 116.446 74.7395 116.421C74.7344 116.396 74.7233 116.373 74.7073 116.354C73.8701 115.374 73.7138 114.536 73.4441 113.09L73.4441 113.09L73.4441 113.09L73.444 113.09C73.4119 112.918 73.3781 112.737 73.3414 112.546C73.1307 111.453 72.9539 110.363 72.811 109.276C72.7993 109.186 72.8206 109.094 72.8704 109.021C72.9202 108.947 72.9948 108.897 73.0784 108.881L79.09 107.752C79.1365 107.744 79.184 107.745 79.2301 107.756C79.2761 107.768 79.3196 107.789 79.3579 107.818C79.3962 107.848 79.4285 107.886 79.4532 107.929C79.4778 107.972 79.4941 108.02 79.5011 108.07C79.6042 108.819 79.7184 109.548 79.8436 110.256C79.8743 110.435 79.8956 110.633 79.9176 110.838L79.9176 110.838L79.9176 110.838L79.9177 110.838C79.9478 111.119 79.9793 111.411 80.0381 111.681C80.3232 113 80.3608 114.03 80.0028 115.365C79.9949 115.395 79.9941 115.426 80.0006 115.456C80.007 115.486 80.0206 115.513 80.0397 115.536C80.0589 115.559 80.0832 115.576 80.1104 115.586C80.1376 115.596 80.1666 115.599 80.1951 115.594L83.6649 114.929C83.7002 114.922 83.7332 114.906 83.7611 114.882C83.7889 114.858 83.8106 114.827 83.8243 114.792C83.8379 114.756 83.843 114.718 83.8391 114.681C83.8352 114.643 83.8225 114.607 83.8019 114.576C83.2759 113.773 82.9312 112.993 82.7764 111.964C82.7034 111.477 82.6194 110.99 82.5353 110.503L82.5353 110.503C82.375 109.574 82.2144 108.643 82.1289 107.71C82.0827 107.206 81.9589 106.711 81.838 106.228L81.838 106.228C81.7392 105.833 81.6425 105.447 81.5918 105.069C81.527 104.58 81.4416 104.093 81.3355 103.609C81.2602 103.269 81.2214 102.932 81.1823 102.592C81.1604 102.403 81.1385 102.212 81.11 102.019C80.942 100.914 80.962 99.9533 81.2072 98.9217C81.2167 98.8822 81.2168 98.841 81.2074 98.8015C81.1981 98.7622 81.1795 98.7259 81.1535 98.6962C81.1276 98.6664 81.095 98.644 81.0588 98.6311C81.0227 98.6183 80.984 98.6153 80.9465 98.6225L77.4943 99.2609C77.4709 99.265 77.4489 99.2753 77.4301 99.2909C77.4115 99.3064 77.3966 99.3266 77.3867 99.3498C77.3769 99.3729 77.3726 99.3985 77.374 99.424C77.3753 99.4495 77.3825 99.4744 77.3948 99.4963C77.9275 100.446 78.3584 101.308 78.5241 102.448C78.6214 103.12 78.715 103.793 78.8048 104.466C78.82 104.578 78.8514 104.702 78.8849 104.835L78.8849 104.835C78.9536 105.108 79.0313 105.417 78.9971 105.719C78.9854 105.825 78.9309 105.886 78.8336 105.903L72.6342 107.076C72.5836 107.086 72.5316 107.075 72.4886 107.046C72.4455 107.016 72.4146 106.971 72.4021 106.918C72.2612 106.339 72.1636 105.699 72.0784 105.14L72.0783 105.139L72.0782 105.139C72.0512 104.962 72.0254 104.792 71.9999 104.636C71.8304 103.611 71.7634 102.575 71.7988 101.529C71.8038 101.4 71.8329 101.259 71.863 101.114C71.9119 100.878 71.9633 100.63 71.9181 100.398C71.9107 100.362 71.89 100.33 71.8606 100.31ZM101.646 124.103C101.655 124.086 101.658 124.066 101.654 124.047C101.65 124.027 101.64 124.01 101.626 123.998C100.277 122.875 99.6556 120.694 100.332 118.942C100.89 117.498 102.713 117.075 103.484 118.431C104.301 119.87 103.794 122.404 103.141 123.808C102.487 125.212 101.556 126.267 100.35 126.975C98.173 128.248 95.5856 127.558 95.2319 124.567C94.8914 121.664 97.4591 118.112 100.143 117.619C100.391 117.575 100.434 117.657 100.273 117.865C99.9649 118.262 99.5788 118.607 99.2072 118.94C98.871 119.241 98.5467 119.531 98.3025 119.839C97.3207 121.084 96.4509 123.266 96.8815 124.9C97.1362 125.866 97.7798 126.625 98.7573 126.563C99.9543 126.487 101.083 125.19 101.646 124.103ZM102.102 123.142C102.439 122.354 103.427 118.892 101.911 118.75C101.448 118.704 101.055 119.242 100.96 119.673C100.669 121.002 100.97 122.173 101.863 123.185C101.88 123.203 101.9 123.217 101.923 123.226C101.946 123.234 101.97 123.236 101.993 123.232C102.017 123.227 102.039 123.217 102.058 123.201C102.077 123.186 102.092 123.165 102.102 123.142ZM121.392 124.986C120.354 125.976 118.981 126.749 117.592 126.508C115.629 126.168 115.297 124.024 115.923 122.297C116.575 120.496 118.148 119.073 119.969 119.035C120.545 119.023 121.379 119.475 121.39 120.206C121.397 120.615 121.083 121.321 120.914 121.595C120.564 122.163 120.683 122.325 121.272 122.081C121.578 121.952 121.917 121.67 122.289 121.236C123.653 119.637 122.521 117.876 120.797 117.636C118.03 117.255 115.62 118.964 114.664 121.683C113.707 124.415 114.669 127.62 117.841 127.551C119.242 127.52 120.457 126.913 121.603 125.887C121.786 125.724 121.851 125.518 121.799 125.269L121.766 125.117C121.709 124.847 121.584 124.803 121.392 124.986ZM124.944 122.14C126.51 121.326 128.008 121.999 127.191 124.126C126.993 124.642 126.793 125.155 126.591 125.666C126.447 126.029 126.485 126.301 126.703 126.482C127.127 126.834 127.804 126.43 128.129 126.085C128.183 126.028 128.197 125.96 128.172 125.882C127.388 123.527 129.262 121.661 131.338 121.823C132.943 121.949 132.941 123.703 131.814 124.548C131.173 125.027 130.519 125.465 129.853 125.863C129.832 125.876 129.814 125.893 129.8 125.914C129.787 125.935 129.777 125.959 129.773 125.984C129.769 126.009 129.77 126.035 129.776 126.06C129.782 126.085 129.794 126.108 129.809 126.127C130.67 127.205 132.113 126.601 132.961 125.892C133.024 125.84 133.049 125.771 133.038 125.687C132.872 124.437 133.057 123.253 133.591 122.135C133.615 122.084 133.651 122.041 133.697 122.012C133.742 121.982 133.795 121.966 133.848 121.966L134.804 121.968C134.825 121.968 134.846 121.974 134.865 121.984C134.883 121.995 134.9 122.011 134.912 122.03C134.923 122.049 134.931 122.072 134.933 122.095C134.935 122.118 134.932 122.142 134.924 122.163C134.316 123.755 133.908 124.9 134.479 126.349C134.491 126.381 134.51 126.41 134.533 126.435C134.556 126.459 134.584 126.478 134.614 126.491C134.644 126.503 134.677 126.509 134.709 126.508C134.742 126.507 134.774 126.499 134.804 126.484L135.739 126.016C135.817 125.978 135.849 125.913 135.836 125.82C135.657 124.474 135.85 123.191 136.414 121.973C136.431 121.935 136.459 121.916 136.497 121.916L137.723 121.892C137.732 121.892 137.741 121.895 137.749 121.9C137.757 121.905 137.764 121.912 137.769 121.921C137.771 121.926 137.774 121.931 137.775 121.936C137.776 121.94 137.777 121.945 137.777 121.949C137.777 121.959 137.775 121.969 137.771 121.978C137.055 123.501 136.585 125.05 137.347 126.468C137.381 126.528 137.426 126.542 137.483 126.511C138.593 125.906 139.453 125.019 140.062 123.848C140.32 123.352 140.25 122.992 139.853 122.77C139.779 122.729 139.695 122.71 139.612 122.716C139.528 122.722 139.448 122.753 139.379 122.805C139.31 122.858 139.256 122.929 139.223 123.012C139.189 123.095 139.177 123.187 139.188 123.277L139.247 123.755C139.253 123.801 139.247 123.848 139.231 123.892C139.215 123.935 139.189 123.973 139.155 124.002C139.122 124.031 139.081 124.051 139.039 124.058C138.996 124.066 138.952 124.061 138.911 124.045C138.494 123.879 138.363 123.454 138.52 122.77C138.889 121.15 141.314 121.145 141.435 122.994C141.505 124.088 140.831 125.102 140.099 125.83C140.048 125.882 140.025 125.946 140.029 126.02C140.05 126.352 140.191 126.549 140.453 126.61C141.266 126.806 142.105 125.804 142.529 125.138C143.198 124.084 143.872 123.034 144.552 121.987C144.573 121.954 144.602 121.927 144.636 121.909C144.67 121.89 144.707 121.88 144.745 121.88L146.381 121.899C146.485 121.901 146.52 121.955 146.485 122.061C146.354 122.449 146.582 122.822 146.787 123.158C146.847 123.257 146.906 123.352 146.953 123.444C148.642 126.753 144.2 129.021 143.164 126.501C143.16 126.493 143.155 126.485 143.15 126.478C143.146 126.472 143.141 126.467 143.136 126.463C143.124 126.452 143.111 126.445 143.096 126.441C143.081 126.436 143.066 126.436 143.051 126.439C143.036 126.442 143.022 126.449 143.01 126.458C142.103 127.179 140.563 128.124 139.35 127.386C139.246 127.322 139.164 127.209 139.078 127.09C139.005 126.99 138.929 126.885 138.834 126.803C138.767 126.745 138.7 126.744 138.632 126.801C138.188 127.167 137.693 127.416 137.145 127.548C137.103 127.558 137.059 127.559 137.016 127.55C136.974 127.541 136.933 127.523 136.897 127.496C136.712 127.356 136.56 127.182 136.44 126.972C136.41 126.921 136.365 126.882 136.312 126.863C136.259 126.844 136.202 126.845 136.15 126.867L134.472 127.586C134.449 127.596 134.425 127.6 134.4 127.599C134.376 127.598 134.351 127.591 134.329 127.579C133.99 127.393 133.736 127.12 133.567 126.76C133.551 126.727 133.528 126.697 133.5 126.674C133.473 126.651 133.44 126.635 133.406 126.627C133.372 126.619 133.337 126.62 133.302 126.628C133.268 126.637 133.237 126.653 133.209 126.677C132.005 127.722 129.93 128.052 128.711 126.806C128.688 126.782 128.658 126.767 128.627 126.763C128.595 126.758 128.563 126.765 128.535 126.782C128.437 126.838 128.338 126.897 128.238 126.957C127.382 127.467 126.462 128.015 125.578 127.163C124.862 126.471 125.337 125.245 125.73 124.232C125.834 123.965 125.931 123.713 126 123.489C126.161 122.957 125.984 122.7 125.469 122.718L125.401 122.72C124.885 122.736 124.528 123.003 124.329 123.52C124.03 124.297 123.728 125.072 123.421 125.844C123.259 126.254 123.303 126.541 123.536 126.875C123.559 126.908 123.575 126.947 123.583 126.987C123.591 127.028 123.591 127.07 123.582 127.11C123.545 127.267 123.477 127.406 123.378 127.527C123.323 127.592 123.257 127.61 123.18 127.581C122.142 127.186 121.841 126.413 122.277 125.261C123.162 122.928 124.053 120.595 124.95 118.261C124.965 118.225 124.99 118.207 125.025 118.207L126.248 118.197C126.262 118.197 126.275 118.201 126.287 118.208C126.299 118.215 126.309 118.225 126.317 118.237C126.318 118.24 126.32 118.242 126.321 118.245C126.326 118.255 126.329 118.267 126.33 118.278C126.33 118.286 126.33 118.295 126.328 118.303C126.327 118.309 126.325 118.315 126.323 118.321L124.862 122.056C124.857 122.069 124.856 122.082 124.858 122.095C124.861 122.108 124.867 122.12 124.876 122.129C124.88 122.133 124.884 122.137 124.889 122.14C124.895 122.143 124.902 122.145 124.908 122.146C124.92 122.148 124.933 122.146 124.944 122.14ZM129.797 124.957C129.862 124.913 129.928 124.869 129.994 124.825L129.994 124.825C130.389 124.561 130.787 124.297 131.162 124C131.332 123.865 131.427 123.691 131.447 123.477C131.584 122.104 129.06 122.832 129.321 124.957C129.325 124.989 129.337 125.019 129.354 125.045C129.372 125.071 129.395 125.092 129.422 125.105C129.449 125.119 129.478 125.125 129.508 125.124C129.537 125.122 129.566 125.112 129.591 125.095C129.66 125.048 129.728 125.002 129.797 124.957ZM144.205 125.352C143.524 126.848 145.54 127.07 146.017 125.873C146.275 125.223 145.909 124.559 145.561 123.926C145.397 123.627 145.236 123.336 145.147 123.056C145.144 123.047 145.139 123.038 145.132 123.032C145.125 123.026 145.116 123.022 145.108 123.021C145.099 123.02 145.09 123.021 145.081 123.025C145.077 123.028 145.073 123.03 145.07 123.034C145.066 123.037 145.064 123.04 145.061 123.044L143.836 124.902C143.82 124.927 143.812 124.956 143.812 124.987C143.812 125.017 143.821 125.046 143.837 125.071C143.853 125.095 143.875 125.114 143.901 125.124C143.928 125.134 143.956 125.136 143.983 125.128C144.047 125.109 144.108 125.122 144.165 125.166C144.225 125.215 144.238 125.277 144.205 125.352ZM104.324 122.642L104.862 122.607C104.882 122.605 104.901 122.608 104.92 122.615C104.938 122.622 104.955 122.633 104.969 122.647C104.983 122.662 104.995 122.679 105.003 122.698C105.011 122.717 105.016 122.738 105.016 122.759C105.03 123.203 104.81 123.781 104.579 124.385C104.087 125.675 103.548 127.085 105.152 127.575C105.24 127.602 105.31 127.575 105.363 127.496C105.472 127.334 105.527 127.152 105.53 126.949C105.532 126.858 105.497 126.789 105.427 126.739C105.226 126.6 105.174 126.41 105.269 126.168C105.528 125.502 105.83 124.698 106.174 123.756C106.258 123.525 106.394 123.32 106.569 123.159C106.744 122.998 106.953 122.886 107.177 122.833L107.452 122.768C107.938 122.653 108.099 122.849 107.935 123.358C107.873 123.552 107.788 123.777 107.695 124.02C107.28 125.109 106.725 126.566 107.516 127.28C108.44 128.113 109.655 127.283 110.556 126.667C110.664 126.594 110.768 126.523 110.865 126.459C110.985 126.379 111.029 126.266 110.997 126.118L110.903 125.693C110.872 125.548 110.802 125.52 110.692 125.607C110.677 125.619 110.661 125.631 110.645 125.644C110.253 125.954 109.383 126.643 108.913 126.618C108.14 126.579 108.464 125.715 108.832 124.731C109.309 123.46 109.861 121.986 108.225 121.824C107.65 121.767 107.113 121.946 106.615 122.361C106.577 122.394 106.53 122.411 106.481 122.411C106.433 122.411 106.385 122.394 106.347 122.361C105.794 121.89 105.17 121.77 104.476 122C104.405 122.024 104.341 122.067 104.289 122.124C104.237 122.181 104.2 122.251 104.179 122.328L104.157 122.416C104.115 122.576 104.17 122.652 104.324 122.642Z" fill="#F7F2F2"/>
</g>
<defs>
<filter id="filter0_d_137_899" x="0" y="59" width="244.193" height="101.799" filterUnits="userSpaceOnUse" color-interpolation-filters="sRGB">
<feFlood flood-opacity="0" result="BackgroundImageFix"/>
<feColorMatrix in="SourceAlpha" type="matrix" values="0 0 0 0 0 0 0 0 0 0 0 0 0 0 0 0 0 0 127 0" result="hardAlpha"/>
<feOffset/>
<feGaussianBlur stdDeviation="10"/>
<feComposite in2="hardAlpha" operator="out"/>
<feColorMatrix type="matrix" values="0 0 0 0 0 0 0 0 0 0 0 0 0 0 0 0 0 0 0.2 0"/>
<feBlend mode="normal" in2="BackgroundImageFix" result="effect1_dropShadow_137_899"/>
<feBlend mode="normal" in="SourceGraphic" in2="effect1_dropShadow_137_899" result="shape"/>
</filter>
</defs>
</svg>
