<svg width="20" height="20" viewBox="0 0 20 20" fill="none" xmlns="http://www.w3.org/2000/svg">
<path fill-rule="evenodd" clip-rule="evenodd" d="M14.5 1H5.5C3.01472 1 1 3.01472 1 5.5V14.5C1 16.9853 3.01472 19 5.5 19H14.5C16.9853 19 19 16.9853 19 14.5V5.5C19 3.01472 16.9853 1 14.5 1ZM13.6002 9.43305C13.7112 10.1821 13.5833 10.947 13.2346 11.6192C12.8858 12.2913 12.334 12.8363 11.6576 13.1768C10.9813 13.5172 10.2148 13.6357 9.46718 13.5154C8.71959 13.3951 8.02896 13.0421 7.49353 12.5067C6.9581 11.9713 6.60513 11.2806 6.48484 10.533C6.36454 9.78545 6.48303 9.01896 6.82347 8.34259C7.1639 7.66622 7.70894 7.11442 8.38106 6.76567C9.05318 6.41692 9.81815 6.28898 10.5672 6.40005C11.3312 6.51335 12.0385 6.86937 12.5847 7.41553C13.1309 7.96169 13.4869 8.66902 13.6002 9.43305ZM16.0977 6.32903C16.2721 5.99297 16.3361 5.61048 16.2805 5.23597C16.2239 4.85396 16.0459 4.50029 15.7728 4.22721C15.4997 3.95413 15.146 3.77612 14.764 3.71947C14.3895 3.66394 14.007 3.72791 13.671 3.90228C13.3349 4.07665 13.0624 4.35256 12.8922 4.69074C12.722 5.02892 12.6627 5.41217 12.7229 5.78597C12.783 6.15976 12.9595 6.50508 13.2272 6.77279C13.4949 7.04051 13.8402 7.21699 14.214 7.27714C14.5878 7.33729 14.9711 7.27804 15.3093 7.10782C15.6474 6.9376 15.9233 6.66508 16.0977 6.32903Z" fill="white"/>
</svg>
