<svg width="114" height="46" viewBox="0 0 114 46" fill="none" xmlns="http://www.w3.org/2000/svg">
<path d="M50.7904 1.33988L50.7927 7.64642C50.7927 7.67753 50.7814 7.7074 50.7614 7.72962C50.7413 7.75184 50.7139 7.76464 50.6852 7.76528L49.8679 7.77498C49.8533 7.7753 49.8388 7.77246 49.8252 7.76663C49.8117 7.76081 49.7993 7.75211 49.7889 7.74104C49.7784 7.72997 49.7702 7.71675 49.7645 7.70217C49.7589 7.68759 49.7559 7.67194 49.7559 7.65612L49.7492 1.33746C49.7492 1.32185 49.7464 1.30639 49.7409 1.29197C49.7354 1.27755 49.7273 1.26445 49.7171 1.25341C49.7069 1.24238 49.6948 1.23363 49.6815 1.22765C49.6682 1.22168 49.6539 1.2186 49.6395 1.2186L48.7304 1.21618C48.7017 1.21619 48.6741 1.20399 48.6536 1.18223C48.6331 1.16046 48.6213 1.13085 48.6207 1.09975L48.605 0.35267C48.6047 0.336859 48.6073 0.321137 48.6127 0.306435C48.6181 0.291734 48.6261 0.27835 48.6363 0.267055C48.6466 0.25576 48.6588 0.246782 48.6722 0.240658C48.6857 0.234534 48.7001 0.231387 48.7147 0.231391L51.8406 0.202277C51.856 0.201881 51.8713 0.205 51.8855 0.211419C51.8997 0.217838 51.9125 0.227417 51.923 0.239541C51.9336 0.251664 51.9417 0.266057 51.9468 0.281786C51.9519 0.297514 51.9538 0.314223 51.9526 0.330833L51.9056 1.10945C51.9039 1.1397 51.8915 1.16809 51.8711 1.18883C51.8508 1.20957 51.8238 1.22109 51.7958 1.22103H50.9002C50.8711 1.22103 50.8432 1.23355 50.8226 1.25584C50.802 1.27813 50.7904 1.30836 50.7904 1.33988Z" fill="white"/>
<path d="M55.2833 4.4521L55.299 7.69027C55.299 7.71085 55.2914 7.73059 55.278 7.74515C55.2646 7.75971 55.2463 7.76788 55.2273 7.76788L54.3249 7.77759C54.3059 7.77759 54.2877 7.76941 54.2743 7.75485C54.2608 7.7403 54.2533 7.72055 54.2533 7.69997L54.2466 0.294633C54.2466 0.274461 54.2538 0.255077 54.2668 0.240589C54.2797 0.2261 54.2974 0.217643 54.316 0.217012L55.243 0.200039C55.2526 0.199714 55.2622 0.20148 55.2711 0.205235C55.2801 0.20899 55.2882 0.214658 55.2951 0.221898C55.302 0.229138 55.3075 0.237805 55.3112 0.247384C55.315 0.256963 55.3169 0.267252 55.3169 0.277652L55.2856 3.26356C55.2856 3.28374 55.2928 3.30312 55.3058 3.31761C55.3187 3.3321 55.3364 3.34055 55.355 3.34118L56.4141 3.39454C56.4237 3.39486 56.4333 3.3931 56.4422 3.38934C56.4512 3.38559 56.4593 3.37992 56.4662 3.37268C56.4731 3.36544 56.4786 3.35677 56.4823 3.34719C56.4861 3.33762 56.488 3.32733 56.488 3.31693L56.4455 0.301909C56.4452 0.291514 56.4468 0.281163 56.4503 0.271464C56.4537 0.261765 56.459 0.252918 56.4656 0.245452C56.4723 0.237985 56.4803 0.232049 56.4892 0.227997C56.498 0.223946 56.5075 0.221863 56.5171 0.221868L57.4218 0.200039C57.4313 0.199714 57.4409 0.20148 57.4499 0.205235C57.4588 0.20899 57.467 0.214658 57.4739 0.221898C57.4808 0.229138 57.4862 0.237805 57.49 0.247384C57.4937 0.256963 57.4956 0.267252 57.4956 0.277652L57.4912 7.69754C57.4912 7.71813 57.4836 7.73787 57.4702 7.75243C57.4567 7.76698 57.4385 7.77516 57.4195 7.77516H56.5507C56.5317 7.77516 56.5135 7.76698 56.5 7.75243C56.4866 7.73787 56.4791 7.71813 56.4791 7.69754L56.4723 4.45452C56.4723 4.43394 56.4648 4.4142 56.4513 4.39964C56.4379 4.38508 56.4197 4.37691 56.4007 4.37691L55.355 4.37448C55.336 4.37448 55.3178 4.38266 55.3043 4.39721C55.2909 4.41177 55.2833 4.43152 55.2833 4.4521Z" fill="white"/>
<path d="M61.4166 6.74914L63.1811 6.75398C63.2041 6.75395 63.2262 6.76351 63.2429 6.78067C63.2595 6.79783 63.2695 6.82128 63.2706 6.84616L63.302 7.68056C63.3026 7.69371 63.3007 7.70684 63.2965 7.71918C63.2923 7.73152 63.2858 7.7428 63.2774 7.75233C63.269 7.76186 63.2589 7.76944 63.2478 7.77462C63.2366 7.77979 63.2246 7.78245 63.2124 7.78243L60.3933 7.76303C60.3695 7.76303 60.3467 7.75281 60.3299 7.73461C60.3131 7.71642 60.3037 7.69174 60.3037 7.66601V0.321317C60.3037 0.308575 60.306 0.295958 60.3105 0.284187C60.315 0.272415 60.3216 0.261722 60.3299 0.252712C60.3383 0.243703 60.3481 0.236551 60.359 0.231675C60.3699 0.226799 60.3815 0.224295 60.3933 0.224295L63.2169 0.207314C63.229 0.207297 63.2411 0.209954 63.2522 0.21513C63.2634 0.220307 63.2735 0.227897 63.2819 0.237426C63.2902 0.246956 63.2967 0.258229 63.301 0.270566C63.3052 0.282904 63.3071 0.296041 63.3065 0.309184L63.2684 1.12661C63.2672 1.15149 63.2573 1.17494 63.2406 1.1921C63.224 1.20926 63.2018 1.21881 63.1788 1.21878L61.4323 1.22364C61.4205 1.22364 61.4089 1.22614 61.398 1.23102C61.3871 1.23589 61.3772 1.24305 61.3689 1.25205C61.3606 1.26106 61.354 1.27176 61.3495 1.28353C61.345 1.2953 61.3427 1.30792 61.3427 1.32066L61.336 3.49884C61.336 3.52458 61.3454 3.54925 61.3622 3.56745C61.379 3.58564 61.4018 3.59587 61.4255 3.59587L62.9572 3.60071C62.9809 3.60071 63.0037 3.61094 63.0205 3.62913C63.0373 3.64733 63.0467 3.672 63.0467 3.69774L63.04 4.54185C63.0394 4.56715 63.0297 4.59121 63.013 4.60889C62.9963 4.62656 62.9738 4.63645 62.9504 4.63644L61.4188 4.61704C61.3955 4.61703 61.373 4.62692 61.3563 4.64459C61.3395 4.66226 61.3298 4.68633 61.3293 4.71164L61.327 6.65211C61.327 6.67785 61.3365 6.70252 61.3533 6.72072C61.3701 6.73891 61.3928 6.74914 61.4166 6.74914Z" fill="white"/>
<path d="M61.4469 25.8822C62.5911 27.2721 64.3623 27.8421 66.0686 27.5413C67.5196 27.2866 68.151 25.7997 67.3494 24.4487C67.1075 24.0436 66.2029 23.4857 65.6633 23.2262C62.9964 21.9406 60.6296 20.7011 60.5758 17.2301C60.549 15.5257 61.1371 14.1795 62.3403 13.1915C64.6064 11.3359 68.0099 11.7119 70.5581 12.6069C70.6432 12.6377 70.6873 12.7007 70.6902 12.7961L70.8492 17.3465C70.8499 17.365 70.847 17.3834 70.8405 17.4005C70.8341 17.4177 70.8243 17.4331 70.8118 17.446C70.7993 17.4588 70.7845 17.4687 70.7681 17.4749C70.7518 17.4812 70.7344 17.4838 70.7171 17.4824C70.526 17.4646 70.3641 17.3522 70.2312 17.1452C69.3938 15.8419 68.1734 15.1918 66.5701 15.195C65.7663 15.195 64.9087 15.3042 64.519 16.124C64.0331 17.1452 64.7273 17.999 65.6409 18.5133C68.1532 19.9346 71.2075 20.8928 71.474 24.57C71.9375 30.9978 66.1178 31.7303 61.8701 30.3792C61.2954 30.1949 60.8192 29.9863 60.4415 29.7534C60.408 29.7328 60.38 29.7029 60.3604 29.6667C60.3408 29.6306 60.3301 29.5894 60.3295 29.5473C60.3004 28.0652 60.0899 26.6414 60.0787 25.3389C60.0728 24.5772 60.3026 24.4818 60.7684 25.0526C60.9386 25.2629 61.1647 25.5394 61.4469 25.8822ZM69.9939 13.3831C69.9252 13.0549 69.7543 12.881 69.4811 12.8616C68.9467 12.8228 68.4145 12.7557 67.8845 12.6603C67.689 12.6247 67.1949 12.6061 66.4022 12.6045C65.4184 12.6029 64.5429 12.7622 63.7756 13.0823C61.5006 14.0308 60.5019 16.6261 61.5835 19.0614C61.8522 19.6654 62.188 20.3324 62.7456 20.7011C64.2205 21.6811 65.5521 22.4637 66.7403 23.0491C67.2807 23.3159 67.7196 23.7638 68.057 24.3929C68.3055 24.8586 68.2607 25.4965 68.2742 26.0326C68.31 27.3497 67.0896 28.0992 66.0126 28.2059C63.9704 28.4097 62.2754 27.9343 60.961 26.3431C60.9438 26.3228 60.9222 26.3074 60.8982 26.2983C60.8742 26.2892 60.8485 26.2867 60.8236 26.2911C60.7986 26.2954 60.7752 26.3064 60.7554 26.3231C60.7356 26.3399 60.72 26.3617 60.7102 26.3867C60.6848 26.453 60.6773 26.5331 60.6878 26.6269C60.7684 27.2931 60.799 27.9609 60.7796 28.6304C60.755 29.5667 61.9888 29.882 62.6516 29.9936C64.3018 30.2701 65.5603 30.5248 67.3471 30.0397C67.7547 29.9297 68.1622 29.8335 68.5697 29.751C68.6414 29.7381 68.7048 29.7049 68.7601 29.6516C69.1198 29.3055 69.4699 28.9506 69.8102 28.5867C70.1924 28.1792 70.4581 27.7523 70.6074 27.306C71.0664 25.9477 71.1448 23.7113 70.1752 22.5252C69.7677 22.0279 69.4699 21.5283 68.9862 21.162C68.1891 20.5556 67.3427 20.2621 66.5186 19.8012C64.9512 18.928 63.4711 18.4017 63.8607 16.1459C63.9682 15.5265 64.2466 15.1279 64.6959 14.9501C66.5933 14.2014 68.3242 14.456 69.8886 15.7141C69.9159 15.7357 69.948 15.7489 69.9817 15.7522C70.0153 15.7555 70.0491 15.7488 70.0795 15.7329C70.1099 15.7169 70.1357 15.6923 70.1542 15.6616C70.1726 15.631 70.183 15.5954 70.1842 15.5589C70.1961 14.9541 70.1737 14.3388 70.117 13.713C70.114 13.6661 70.1036 13.6249 70.0857 13.5893C70.0304 13.4745 69.9998 13.4058 69.9939 13.3831Z" fill="white"/>
<path d="M56.5809 23.2917C56.1577 27.8906 52.6847 30.4011 48.6564 30.5248C46.456 30.5911 44.2549 30.6533 42.053 30.7115C41.7619 30.7196 41.5134 30.6962 41.3074 30.6412C41.2755 30.6323 41.2461 30.6148 41.2222 30.5903C41.1983 30.5659 41.1805 30.5352 41.1706 30.5014C41.1607 30.4676 41.1591 30.4317 41.1657 30.3971C41.1724 30.3626 41.1873 30.3305 41.2088 30.3041C42.4896 28.7201 42.4449 27.5607 42.4068 25.2491C42.362 22.471 42.3038 19.6937 42.2321 16.9172C42.1851 15.0689 41.9612 13.9895 40.864 12.7306C40.8384 12.702 40.8211 12.6659 40.8141 12.6269C40.807 12.5878 40.8106 12.5473 40.8243 12.5104C40.8381 12.4734 40.8614 12.4416 40.8915 12.4187C40.9216 12.3958 40.9571 12.3828 40.9939 12.3814C43.4928 12.2479 45.9895 12.2358 48.4907 12.1679C49.1609 12.1485 49.9991 12.2819 51.0053 12.5681C55.7165 13.9022 57.0086 18.6272 56.5809 23.2917ZM55.0649 16.7183C54.6462 15.9931 53.9565 14.9355 53.2557 14.5304C53.2169 14.5078 53.1855 14.4763 53.1616 14.4358C53.1497 14.4148 53.137 14.3946 53.1236 14.3752C53.0982 14.3396 53.0646 14.3105 53.0228 14.2879C52.3734 13.9289 51.7599 13.5602 51.0433 13.354C50.2932 13.1381 49.6013 12.8689 48.8131 12.8616C47.1449 12.8471 45.3849 12.9441 43.7279 12.7743C43.2308 12.7234 42.3038 12.556 41.9478 12.9732C41.9018 13.0267 41.8749 13.0963 41.872 13.1696C41.8692 13.2429 41.8905 13.3152 41.9321 13.3734C42.262 13.8278 42.4807 14.3453 42.5882 14.9258C42.7046 15.5629 42.7524 16.7628 42.7315 18.5254C42.7001 21.3997 42.8166 23.8835 42.9666 26.5686C43.0405 27.8979 42.6061 28.6352 42.4673 29.7534C42.4624 29.7924 42.4654 29.832 42.4759 29.8695C42.4865 29.9071 42.5044 29.9418 42.5284 29.9712C42.5523 30.0007 42.5819 30.0242 42.615 30.0402C42.6481 30.0562 42.684 30.0643 42.7203 30.0639C44.84 30.0413 46.9561 29.9831 49.0684 29.8893C49.9506 29.8505 50.9717 29.6103 51.7711 29.1859C52.4384 28.8317 53.1616 28.5261 53.708 28.0531C54.2857 27.5534 54.7612 26.9543 55.1344 26.2557C55.3336 25.8822 55.3963 25.4456 55.5374 25.026C56.2898 22.7847 56.198 20.2281 55.506 17.9966C55.3963 17.6425 55.3023 17.1258 55.0649 16.7183Z" fill="white"/>
<path d="M70.0865 13.5893C70.1044 13.6249 70.1149 13.6661 70.1179 13.713C70.1746 14.3388 70.197 14.9541 70.1851 15.5589C70.1839 15.5954 70.1735 15.631 70.155 15.6616C70.1366 15.6923 70.1108 15.7169 70.0804 15.7329C70.05 15.7488 70.0162 15.7555 69.9825 15.7522C69.9489 15.7489 69.9167 15.7357 69.8895 15.7141C68.325 14.456 66.5941 14.2014 64.6968 14.9501C64.2475 15.1279 63.9691 15.5265 63.8616 16.1459C63.472 18.4017 64.9521 18.928 66.5195 19.8012C67.3435 20.2621 68.1899 20.5556 68.9871 21.162C69.4708 21.5283 69.7686 22.0279 70.1761 22.5252C71.1457 23.7113 71.0673 25.9477 70.6083 27.306C70.459 27.7523 70.1933 28.1792 69.8111 28.5867C69.4708 28.9506 69.1207 29.3055 68.7609 29.6516C68.7057 29.7049 68.6423 29.7381 68.5706 29.751C68.1631 29.8335 67.7555 29.9297 67.348 30.0397C65.5611 30.5248 64.3027 30.2701 62.6524 29.9936C61.9896 29.882 60.7558 29.5667 60.7805 28.6304C60.7999 27.9609 60.7693 27.2931 60.6887 26.6269C60.6782 26.5331 60.6857 26.453 60.711 26.3867C60.7209 26.3617 60.7364 26.3399 60.7562 26.3231C60.776 26.3064 60.7995 26.2954 60.8244 26.2911C60.8494 26.2867 60.875 26.2892 60.899 26.2983C60.923 26.3074 60.9446 26.3228 60.9618 26.3431C62.2762 27.9342 63.9713 28.4097 66.0134 28.2059C67.0905 28.0992 68.3109 27.3497 68.275 26.0326C68.2616 25.4965 68.3064 24.8586 68.0578 24.3929C67.7205 23.7638 67.2816 23.3159 66.7412 23.0491C65.5529 22.4637 64.2213 21.6811 62.7465 20.7011C62.1889 20.3324 61.853 19.6654 61.5843 19.0614C60.5028 16.6261 61.5015 14.0308 63.7765 13.0823C64.5438 12.7622 65.4193 12.6029 66.4031 12.6045C67.1957 12.6061 67.6898 12.6247 67.8854 12.6603C68.4153 12.7557 68.9475 12.8228 69.4819 12.8616C69.7551 12.881 69.9261 13.0549 69.9947 13.3831C70.0007 13.4058 70.0313 13.4745 70.0865 13.5893Z" fill="white"/>
<path d="M55.0652 16.7183C55.3026 17.1258 55.3966 17.6425 55.5063 17.9966C56.1982 20.2281 56.2901 22.7847 55.5377 25.026C55.3966 25.4456 55.3339 25.8822 55.1346 26.2557C54.7614 26.9543 54.286 27.5534 53.7083 28.0531C53.1619 28.5261 52.4386 28.8317 51.7714 29.1859C50.972 29.6103 49.9509 29.8505 49.0687 29.8893C46.9564 29.9831 44.8403 30.0413 42.7206 30.0639C42.6843 30.0643 42.6484 30.0562 42.6153 30.0402C42.5822 30.0242 42.5526 30.0007 42.5286 29.9712C42.5046 29.9418 42.4868 29.9071 42.4762 29.8695C42.4657 29.832 42.4627 29.7924 42.4675 29.7535C42.6064 28.6353 43.0408 27.8979 42.9669 26.5686C42.8168 23.8835 42.7004 21.3997 42.7318 18.5254C42.7527 16.7628 42.7049 15.5629 42.5885 14.9258C42.481 14.3453 42.2623 13.8278 41.9324 13.3734C41.8907 13.3152 41.8695 13.2429 41.8723 13.1696C41.8752 13.0963 41.902 13.0267 41.948 12.9732C42.3041 12.556 43.2311 12.7234 43.7282 12.7743C45.3852 12.9441 47.1452 12.8471 48.8134 12.8616C49.6016 12.8689 50.2935 13.1381 51.0436 13.354C51.7602 13.5602 52.3737 13.9289 53.0231 14.2879C53.0649 14.3105 53.0985 14.3396 53.1238 14.3752C53.1373 14.3946 53.15 14.4148 53.1619 14.4358C53.1858 14.4763 53.2171 14.5078 53.2559 14.5304C53.9568 14.9355 54.6465 15.9931 55.0652 16.7183ZM45.5039 14.9986L45.6897 27.8324C45.69 27.861 45.6955 27.8894 45.7059 27.9157C45.7163 27.9421 45.7314 27.966 45.7503 27.986C45.7693 28.0061 45.7916 28.0219 45.8162 28.0326C45.8408 28.0432 45.867 28.0486 45.8935 28.0483L48.4439 28.0046C49.0752 27.9937 49.6982 27.842 50.2774 27.558C50.8566 27.2741 51.3807 26.8635 51.8196 26.3497C52.2585 25.836 52.6038 25.2291 52.8356 24.5637C53.0675 23.8983 53.1814 23.1875 53.1709 22.4718L53.1373 20.102C53.1163 18.6567 52.5898 17.2792 51.6735 16.2725C50.7572 15.2659 49.5262 14.7125 48.2514 14.7342L45.7009 14.7754C45.6745 14.776 45.6484 14.7823 45.6241 14.7939C45.5999 14.8054 45.578 14.822 45.5597 14.8428C45.5414 14.8635 45.5271 14.8879 45.5175 14.9147C45.5079 14.9414 45.5033 14.9699 45.5039 14.9986Z" fill="white"/>
<path d="M28.6768 32.4192C24.541 32.4725 22.7048 29.1665 22.2973 25.1909C22.0689 22.9432 21.8554 20.693 21.6569 18.4405C21.5345 17.0369 20.9963 15.8661 20.0424 14.9282C19.8976 14.7859 19.9006 14.6477 20.0514 14.5134C20.0857 14.4811 20.1783 14.4577 20.3291 14.4431C22.3115 14.2507 24.182 14.0599 25.9405 13.8707C26.3689 13.8254 26.4607 13.9936 26.2159 14.3752C25.5889 15.36 25.3284 16.4539 25.4344 17.657C25.718 20.8523 25.977 23.4995 26.2114 25.5984C26.3861 27.1459 26.9347 28.628 28.4999 28.9967C28.7492 29.0565 29.244 29.0387 29.9844 28.9433C32.2393 28.6546 32.5237 26.542 32.3602 24.5093C32.1572 21.977 31.9101 19.4503 31.6191 16.9293C31.4787 15.7101 30.9921 14.6663 30.1591 13.7979C30.127 13.7647 30.1044 13.7223 30.094 13.6756C30.0836 13.6288 30.0858 13.5798 30.1004 13.5342C30.115 13.4886 30.1413 13.4483 30.1763 13.4181C30.2113 13.3879 30.2535 13.3691 30.2979 13.3637L36.1109 12.7015C36.3049 12.6789 36.387 12.7719 36.3572 12.9805C36.3102 13.3152 35.9317 13.6645 35.8041 13.9628C35.4563 14.7762 35.3257 15.6438 35.4122 16.5655C35.6377 18.9911 35.8728 21.4159 36.1176 23.8398C36.6931 29.5279 33.6187 32.3561 28.6768 32.4192ZM33.6993 30.2022C33.8582 29.9912 34.1762 29.8311 34.2703 29.654C34.5569 29.1107 34.8972 28.6862 35.0629 28.0798C35.2577 27.3667 35.4884 26.7166 35.5085 25.9622C35.607 22.4354 34.9263 19.0178 34.848 15.5007C34.8323 14.8749 35.0316 14.3388 35.1435 13.7154C35.1496 13.682 35.1484 13.6475 35.1401 13.6146C35.1318 13.5818 35.1166 13.5516 35.0957 13.5263C35.0748 13.5011 35.0488 13.4816 35.0198 13.4694C34.9908 13.4571 34.9595 13.4525 34.9286 13.4559C34.209 13.5303 33.4843 13.6224 32.7543 13.7324C32.4214 13.7825 32.0288 13.8125 31.5765 13.8222C31.5375 13.8229 31.4993 13.8343 31.4653 13.8553C31.4314 13.8762 31.4028 13.9061 31.3822 13.9422C31.3615 13.9783 31.3494 14.0195 31.347 14.062C31.3446 14.1046 31.3519 14.1472 31.3683 14.186C31.6728 14.8878 31.9184 15.6357 32.105 16.4297C32.2729 17.1452 32.2953 17.8899 32.3535 18.6442C32.4005 19.2506 32.5618 20.0268 32.5752 20.7424C32.5819 20.9995 32.6983 21.2396 32.7163 21.4749C32.8394 23.0248 33.0835 24.5627 32.9738 26.1611C32.9447 26.5783 32.7364 27.5583 32.5729 27.8857C31.6549 29.7171 29.8255 29.7971 28.117 29.5691C25.3829 29.2077 25.5128 24.4754 25.2933 22.2462C25.2194 21.5113 25.2038 20.6696 25.0448 19.8352C24.8881 19.0129 24.9351 18.1324 24.8634 17.2932C24.8209 16.7692 24.8948 16.3399 24.9731 15.8402C25.0179 15.5686 25.1814 15.229 25.1769 14.8991C25.1767 14.8612 25.1693 14.8237 25.1551 14.7891C25.1408 14.7544 25.1201 14.7233 25.0942 14.6978C25.0683 14.6723 25.0379 14.6528 25.0047 14.6407C24.9715 14.6286 24.9364 14.6241 24.9015 14.6274L21.4285 14.9452C21.3673 14.9517 21.3277 14.9864 21.3098 15.0495C21.2516 15.25 21.2994 15.4101 21.4531 15.5298C21.4821 15.552 21.5066 15.5804 21.5251 15.6134C21.5436 15.6463 21.5557 15.6831 21.5606 15.7214C21.5935 15.9769 21.6815 16.2777 21.8248 16.6237C22.201 17.5382 22.2167 18.9402 22.3085 19.6193C22.4966 20.9971 22.5369 22.4112 22.7048 23.7525C22.8817 25.1666 22.9623 26.5759 23.4303 27.8008C23.7908 28.7444 24.223 29.8359 25.0649 30.3987C25.721 30.8353 26.2674 31.3907 27.0466 31.5702C27.5288 31.6802 28.014 31.7537 28.5021 31.7909C29.4739 31.8637 31.1667 31.5726 32.0826 31.1166C32.4991 30.908 33.4216 30.5709 33.6993 30.2022Z" fill="white"/>
<path d="M85.4139 32.2373C81.5401 32.8776 77.3596 31.0754 75.7183 26.9665C74.7554 24.553 74.8427 21.4385 75.6556 18.9668C76.8311 15.3891 79.4913 13.1867 83.0583 12.949C89.4131 12.5245 93.8176 17.3805 92.6308 24.3783C91.9277 28.514 89.3907 31.5799 85.4139 32.2373ZM90.9895 17.3344C90.5954 16.551 89.4803 15.3964 88.7929 14.9937C86.2178 13.4802 83.1188 13.0581 80.3802 14.2879C79.4308 14.7148 78.8091 15.0592 78.515 15.3212C78.2672 15.5411 77.9164 16.0149 77.4626 16.7426C76.7938 17.8131 76.3699 18.7283 76.1907 19.4883C76.0101 20.2451 75.8451 21.006 75.6959 21.7708C75.407 23.2529 75.7093 24.2328 75.9198 25.596C76.0497 26.4255 76.5266 27.175 76.8199 27.9221C76.9305 28.2064 77.098 28.4607 77.3103 28.6668C78.0089 29.3435 78.5844 30.0154 79.5719 30.5709C81.4416 31.6212 83.7122 31.8807 85.7588 31.4999C87.315 31.2088 89.9438 29.768 90.638 28.1283C90.6813 28.0232 90.7455 27.8938 90.8305 27.7402C91.4575 26.6164 91.8688 25.313 92.0643 23.8302C92.133 23.3095 92.1897 22.7872 92.2345 22.2632C92.3801 20.6041 91.7128 18.7679 90.9895 17.3344Z" fill="white"/>
<path d="M33.6986 30.2022C33.4209 30.5709 32.4984 30.908 32.0819 31.1166C31.1661 31.5726 29.4732 31.8637 28.5014 31.7909C28.0133 31.7537 27.5281 31.6802 27.0459 31.5702C26.2667 31.3907 25.7203 30.8353 25.0643 30.3987C24.2223 29.8359 23.7902 28.7444 23.4297 27.8008C22.9617 26.5759 22.8811 25.1666 22.7042 23.7525C22.5362 22.4112 22.4959 20.9971 22.3078 19.6193C22.216 18.9402 22.2003 17.5382 21.8242 16.6237C21.6808 16.2777 21.5928 15.9769 21.5599 15.7214C21.555 15.6831 21.5429 15.6463 21.5244 15.6134C21.5059 15.5804 21.4814 15.552 21.4525 15.5298C21.2987 15.4101 21.2509 15.25 21.3091 15.0495C21.3271 14.9864 21.3666 14.9517 21.4278 14.9452L24.9008 14.6274C24.9357 14.6241 24.9708 14.6286 25.004 14.6407C25.0372 14.6528 25.0677 14.6723 25.0936 14.6978C25.1194 14.7233 25.1402 14.7544 25.1544 14.7891C25.1686 14.8237 25.1761 14.8612 25.1762 14.8991C25.1807 15.229 25.0172 15.5686 24.9725 15.8402C24.8941 16.3399 24.8202 16.7692 24.8627 17.2932C24.9344 18.1324 24.8874 19.0129 25.0441 19.8352C25.2031 20.6696 25.2188 21.5113 25.2927 22.2462C25.5121 24.4754 25.3822 29.2077 28.1163 29.5691C29.8248 29.7971 31.6542 29.7171 32.5723 27.8857C32.7357 27.5583 32.944 26.5783 32.9731 26.1611C33.0828 24.5627 32.8387 23.0248 32.7156 21.4749C32.6977 21.2396 32.5812 20.9995 32.5745 20.7424C32.5611 20.0268 32.3998 19.2506 32.3528 18.6442C32.2946 17.8899 32.2722 17.1452 32.1043 16.4297C31.9177 15.6357 31.6721 14.8878 31.3676 14.186C31.3512 14.1472 31.3439 14.1046 31.3463 14.062C31.3487 14.0195 31.3608 13.9783 31.3815 13.9422C31.4022 13.9061 31.4307 13.8762 31.4647 13.8553C31.4986 13.8343 31.5368 13.8229 31.5758 13.8222C32.0281 13.8125 32.4207 13.7825 32.7536 13.7324C33.4836 13.6224 34.2084 13.5303 34.9279 13.4559C34.9589 13.4525 34.9901 13.4571 35.0191 13.4694C35.0482 13.4816 35.0742 13.5011 35.0951 13.5263C35.116 13.5516 35.1312 13.5818 35.1395 13.6146C35.1478 13.6475 35.1489 13.682 35.1429 13.7154C35.0309 14.3388 34.8316 14.8749 34.8473 15.5007C34.9257 19.0178 35.6064 22.4354 35.5078 25.9622C35.4877 26.7166 35.2571 27.3667 35.0622 28.0798C34.8965 28.6862 34.5562 29.1107 34.2696 29.654C34.1755 29.8311 33.8576 29.9912 33.6986 30.2022Z" fill="white"/>
<path d="M88.792 14.9937C89.4795 15.3964 90.5946 16.5509 90.9887 17.3344C91.7119 18.7679 92.3792 20.6041 92.2337 22.2632C92.1889 22.7871 92.1322 23.3095 92.0635 23.8302C91.8679 25.313 91.4567 26.6163 90.8297 27.7402C90.7446 27.8938 90.6804 28.0232 90.6371 28.1283C89.943 29.768 87.3142 31.2088 85.7579 31.4999C83.7113 31.8807 81.4408 31.6212 79.571 30.5709C78.5836 30.0154 78.0081 29.3435 77.3095 28.6668C77.0971 28.4607 76.9297 28.2064 76.8191 27.9221C76.5258 27.175 76.0488 26.4255 75.9189 25.596C75.7084 24.2328 75.4062 23.2529 75.695 21.7708C75.8443 21.006 76.0092 20.2451 76.1899 19.4883C76.369 18.7283 76.793 17.8131 77.4617 16.7426C77.9155 16.0149 78.2664 15.5411 78.5142 15.3212C78.8082 15.0592 79.43 14.7148 80.3794 14.2879C83.1179 13.0581 86.217 13.4801 88.792 14.9937ZM85.5206 15.8063C82.7873 15.1498 80.7765 16.0472 79.4882 18.4987C79.1702 19.1051 79.0045 19.8667 78.8075 20.5629C78.6433 21.1369 78.5537 21.6746 78.5388 22.1759C78.5164 22.9618 78.541 23.7445 78.6127 24.5239C78.6858 25.3162 78.8635 26.0027 79.1456 26.5832C79.4606 27.23 79.8539 27.8178 80.3257 28.3466C80.7302 28.7978 81.2071 29.1147 81.7565 29.2974C82.5417 29.5578 83.3545 29.6653 84.195 29.62C86.6738 29.4866 88.4203 27.1702 88.9891 24.747C89.2757 23.5294 89.2914 21.8387 89.1794 20.5677C88.9891 18.4284 87.5336 16.289 85.5206 15.8063Z" fill="white"/>
<path d="M45.5035 14.9986C45.5029 14.9699 45.5075 14.9414 45.5171 14.9147C45.5267 14.8879 45.541 14.8635 45.5593 14.8428C45.5776 14.822 45.5995 14.8054 45.6237 14.7939C45.648 14.7823 45.6741 14.776 45.7005 14.7754L48.251 14.7342C49.5258 14.7125 50.7568 15.2659 51.6731 16.2725C52.5894 17.2792 53.1159 18.6567 53.1369 20.102L53.1705 22.4718C53.181 23.1875 53.0671 23.8983 52.8352 24.5637C52.6034 25.2291 52.2581 25.836 51.8192 26.3497C51.3803 26.8635 50.8562 27.2741 50.277 27.558C49.6978 27.842 49.0748 27.9937 48.4435 28.0046L45.8931 28.0483C45.8666 28.0486 45.8404 28.0432 45.8158 28.0326C45.7912 28.0219 45.7688 28.0061 45.7499 27.986C45.731 27.966 45.7159 27.9421 45.7055 27.9157C45.6951 27.8894 45.6896 27.861 45.6893 27.8324L45.5035 14.9986ZM46.0118 15.588L46.1797 27.2187C46.18 27.2467 46.1854 27.2744 46.1956 27.3002C46.2057 27.326 46.2205 27.3493 46.239 27.3689C46.2575 27.3885 46.2794 27.404 46.3034 27.4144C46.3274 27.4248 46.3531 27.43 46.379 27.4297L48.298 27.3982C48.8688 27.3885 49.4322 27.2517 49.956 26.9957C50.4798 26.7397 50.9537 26.3695 51.3507 25.9061C51.7476 25.4428 52.0599 24.8954 52.2695 24.2954C52.4792 23.6953 52.5822 23.0542 52.5726 22.4088L52.5412 20.1772C52.5318 19.5319 52.4101 18.8948 52.1829 18.3024C51.9558 17.71 51.6277 17.1738 51.2175 16.7244C50.8072 16.2751 50.3228 15.9214 49.7919 15.6835C49.261 15.4456 48.694 15.3283 48.1233 15.3382L46.2043 15.3721C46.1525 15.3734 46.1032 15.3968 46.0671 15.4372C46.031 15.4776 46.0112 15.5318 46.0118 15.588Z" fill="white"/>
<path d="M107.37 28.5601C107.493 27.9682 107.507 27.3012 107.601 26.7578C108.125 23.7162 108.454 21.6989 108.588 20.706C108.748 19.5207 108.535 18.4146 107.95 17.3878C107.931 17.3532 107.921 17.3133 107.922 17.2728C107.923 17.2323 107.934 17.1929 107.955 17.1594C107.976 17.1259 108.006 17.0997 108.04 17.0838C108.075 17.068 108.113 17.0632 108.149 17.07L113.868 18.1761C113.899 18.1819 113.927 18.1973 113.95 18.2204C113.973 18.2436 113.988 18.2734 113.996 18.3061C114.003 18.3389 114.001 18.3733 113.99 18.4049C113.979 18.4366 113.96 18.4641 113.935 18.4842C112.632 19.5538 112.281 20.5702 111.958 22.4209C111.434 25.4302 110.935 28.4436 110.46 31.4611C110.174 33.2827 110.138 34.413 111.036 35.8344C111.063 35.8761 111.077 35.9255 111.078 35.9763C111.079 36.0271 111.065 36.077 111.04 36.1198C111.014 36.1627 110.977 36.1964 110.934 36.2168C110.891 36.2373 110.843 36.2435 110.796 36.2346L105.709 35.262C105.63 35.2458 105.581 35.1957 105.563 35.1116C105.421 34.4033 105.276 33.8406 105.126 33.4234C104.279 31.0495 103.408 28.6846 102.513 26.3285C102.065 25.1464 101.737 24.0355 101.528 22.9957C101.361 22.1565 101.285 22.1654 101.3 23.0224C101.303 23.244 101.263 23.607 101.181 24.1115C100.912 25.7593 100.65 27.4079 100.395 29.0573C100.068 31.1652 99.8576 32.2906 100.838 33.9182C100.861 33.9559 100.873 33.9999 100.873 34.0448C100.872 34.0897 100.86 34.1335 100.838 34.1709C100.815 34.2082 100.783 34.2375 100.745 34.2551C100.708 34.2727 100.666 34.2778 100.626 34.2699L95.0053 33.2002C94.9571 33.1914 94.9125 33.1673 94.8768 33.1311C94.8412 33.0949 94.8162 33.0482 94.805 32.9967C94.7938 32.9452 94.7968 32.8912 94.8137 32.8416C94.8306 32.7919 94.8607 32.7488 94.9001 32.7175C96.1652 31.6867 96.4854 30.6048 96.7899 28.8026C97.3423 25.5539 97.8857 22.3028 98.4201 19.0493C98.6291 17.7718 98.4186 16.593 97.7886 15.5128C97.7558 15.4562 97.7312 15.4053 97.7147 15.36C97.7038 15.3278 97.7008 15.293 97.7061 15.2591C97.7114 15.2253 97.7247 15.1935 97.7449 15.167C97.7651 15.1405 97.7913 15.1202 97.821 15.1081C97.8506 15.096 97.8827 15.0925 97.914 15.098L103.427 16.1483C103.496 16.1629 103.531 16.2073 103.532 16.2817C103.546 16.969 103.684 17.6918 103.949 18.4502C105.111 21.7902 106.425 25.1109 107.269 28.5625C107.272 28.5749 107.279 28.586 107.288 28.5939C107.297 28.6017 107.309 28.6058 107.321 28.6055C107.332 28.6053 107.344 28.6006 107.353 28.5923C107.362 28.584 107.368 28.5726 107.37 28.5601ZM96.7989 31.0827C96.678 31.5775 96.3936 32.0117 96.1137 32.3974C96.0874 32.4331 96.0701 32.4757 96.0637 32.5209C96.0572 32.5661 96.0618 32.6123 96.077 32.655C96.0921 32.6977 96.1174 32.7353 96.1501 32.7642C96.1829 32.793 96.2221 32.812 96.2637 32.8194L99.3561 33.3603C99.3912 33.3669 99.4272 33.3643 99.4613 33.3527C99.4953 33.3411 99.5263 33.3209 99.5519 33.2937C99.5774 33.2665 99.5967 33.2331 99.6082 33.1962C99.6197 33.1593 99.6231 33.12 99.618 33.0814C99.4949 32.1184 99.4703 31.2064 99.6091 30.1852C99.9651 27.551 100.391 25.431 100.63 23.2577C100.675 22.8454 100.85 22.3845 100.861 21.96C100.882 21.1741 100.918 20.3761 100.968 19.566C100.971 19.5175 100.991 19.4721 101.024 19.4391C101.057 19.4062 101.1 19.3882 101.145 19.3889C101.391 19.3921 101.531 19.5409 101.564 19.8352C101.713 21.1353 101.974 22.4088 102.348 23.6555C102.652 24.6718 102.838 25.7027 103.293 26.6924C103.512 27.1702 103.505 27.7426 103.89 28.2205C103.938 28.2803 103.97 28.349 103.984 28.4267C104.028 28.6466 104.089 28.86 104.168 29.067C104.665 30.3687 105.147 31.677 105.615 32.9916C105.758 33.3967 105.827 33.8406 105.968 34.2723C106.154 34.8472 106.893 34.8472 107.509 34.9369C108.102 35.0243 108.899 35.3008 109.676 35.3153C109.709 35.3158 109.74 35.3087 109.769 35.2945C109.799 35.2803 109.825 35.2593 109.845 35.2331C109.866 35.2069 109.881 35.1761 109.89 35.143C109.898 35.1098 109.899 35.0751 109.894 35.0412C109.802 34.447 109.612 33.86 109.634 33.2778C109.667 32.3723 109.818 31.2549 110.086 29.9257C110.259 29.0654 110.557 27.1985 110.98 24.325C111.13 23.3014 111.372 22.2462 111.564 21.2008C111.658 20.6842 111.963 20.2961 112.057 19.7333C112.07 19.6509 112.104 19.5789 112.158 19.5175C112.329 19.325 112.465 19.1059 112.565 18.8601C112.59 18.7977 112.6 18.7294 112.594 18.6616C112.588 18.5938 112.567 18.5288 112.531 18.4727C112.495 18.4166 112.447 18.3712 112.391 18.341C112.334 18.3107 112.272 18.2966 112.209 18.2998C111.267 18.3435 110.346 18.2157 109.446 17.9166C109.383 17.8958 109.316 17.895 109.253 17.9143C109.19 17.9337 109.134 17.9723 109.091 18.0256C109.047 18.0788 109.019 18.1444 109.01 18.2146C109 18.2848 109.009 18.3565 109.036 18.4211C109.35 19.1682 109.191 21.196 109.047 22.0158C108.852 23.1364 108.752 23.7113 108.749 23.7404C108.646 24.456 108.579 25.6057 108.288 26.246C108.257 26.3123 108.243 26.3835 108.248 26.4595C108.264 26.7166 108.211 26.9527 108.087 27.1678C108.043 27.2405 108.022 27.3206 108.024 27.4079C108.043 28.3992 107.993 29.3872 107.872 30.372C107.827 30.7261 107.892 31.0439 107.91 31.4126C107.912 31.4536 107.899 31.4938 107.874 31.5246C107.848 31.5554 107.813 31.5744 107.775 31.5775C107.471 31.6066 107.282 31.4336 107.209 31.0584C107.064 30.3178 106.878 29.5893 106.651 28.873C106.58 28.6474 106.66 28.3175 106.568 28.0313C106.336 27.306 106.045 26.6293 105.845 25.8919C105.451 24.4438 104.786 22.8575 104.392 21.6932C103.933 20.3422 103.487 19.1197 103.172 17.6037C103.04 16.9657 102.82 16.6383 102.229 16.534C101.508 16.4095 100.786 16.2898 100.064 16.175C99.7121 16.1216 99.4165 15.9543 98.9508 16.0319C98.9108 16.0388 98.873 16.0563 98.8407 16.0826C98.8083 16.109 98.7824 16.1435 98.7652 16.1832C98.748 16.2229 98.74 16.2665 98.7419 16.3103C98.7438 16.3541 98.7555 16.3968 98.7761 16.4345C99.1523 17.1137 99.009 18.1713 98.9844 18.945C98.9575 19.7382 98.7336 20.6866 98.7313 21.5355C98.7313 21.6051 98.7112 21.6544 98.6709 21.6835C98.6201 21.7207 98.5895 21.7716 98.5791 21.8363L97.0542 30.6582C97.0392 30.7471 96.9982 30.8199 96.931 30.8765C96.8638 30.9331 96.8198 31.0018 96.7989 31.0827Z" fill="white"/>
<path d="M11.6992 22.8963C11.5753 21.7643 11.3954 20.6445 11.1595 19.5368C10.9192 18.4098 10.39 17.484 9.57193 16.7595C9.48535 16.6835 9.43385 16.6035 9.41743 16.5194C9.41356 16.4987 9.41358 16.4773 9.41749 16.4566C9.4214 16.4358 9.42912 16.4162 9.44019 16.3988C9.45127 16.3813 9.46547 16.3665 9.48194 16.3551C9.49842 16.3438 9.51684 16.3361 9.53611 16.3326L15.4901 15.195C15.5359 15.1861 15.5831 15.192 15.6258 15.2119C15.6685 15.2318 15.7049 15.2649 15.7304 15.307C15.756 15.3491 15.7695 15.3984 15.7694 15.4488C15.7692 15.4992 15.7554 15.5484 15.7297 15.5904C15.1206 16.5914 14.8967 17.6611 15.0579 18.7995C15.5804 22.4912 16.1551 26.1733 16.7821 29.8456C16.9986 31.1166 17.5972 32.116 18.578 32.8436C18.6027 32.8617 18.6233 32.8858 18.6382 32.9139C18.653 32.942 18.6618 32.9735 18.6637 33.006C18.6656 33.0385 18.6607 33.0711 18.6494 33.1014C18.638 33.1317 18.6205 33.1588 18.5981 33.1808C18.5578 33.2212 18.4824 33.2528 18.3719 33.2754C16.4179 33.6813 14.5034 34.0637 12.6284 34.4227C12.5843 34.4311 12.539 34.4256 12.4977 34.407C12.4563 34.3884 12.4208 34.3574 12.3951 34.3177C12.3695 34.278 12.3549 34.2311 12.353 34.1827C12.3511 34.1343 12.3619 34.0863 12.3844 34.0443C12.9546 32.9835 13.1539 31.8669 12.9822 30.6946C12.7673 29.2295 12.5411 27.7645 12.3037 26.2994C12.2903 26.2121 12.2433 26.1765 12.1627 26.1927L6.83116 27.2405C6.76399 27.2535 6.73563 27.2963 6.74608 27.3691C6.97 28.9263 7.25064 30.4722 7.58801 32.0068C7.82387 33.0757 8.3262 33.9521 9.09499 34.6362C9.38608 34.8965 9.34578 35.0623 8.97407 35.1334L3.21263 36.2346C3.16032 36.2445 3.10647 36.2374 3.05789 36.2142C3.0093 36.191 2.96815 36.1527 2.93964 36.1042C2.91113 36.0556 2.89653 35.999 2.8977 35.9415C2.89886 35.884 2.91573 35.8282 2.94617 35.781C3.83961 34.4227 3.76795 33.0425 3.50821 31.4271C2.9917 28.2285 2.46325 25.0324 1.92286 21.8387C1.76164 20.8782 1.42949 20.0575 0.926423 19.3768C0.695786 19.0663 0.326318 18.7946 0.0464197 18.472C0.0253456 18.4478 0.0107062 18.4179 0.00404881 18.3854C-0.00260863 18.353 -0.0010332 18.3192 0.00860673 18.2876C0.0182466 18.256 0.0355913 18.2279 0.0588054 18.2061C0.0820194 18.1843 0.110238 18.1698 0.140469 18.164C1.93481 17.8114 3.73885 17.4541 5.55259 17.0918C5.79144 17.0433 5.9952 17.0288 6.16389 17.0482C6.20089 17.0522 6.23634 17.0664 6.26683 17.0894C6.29731 17.1125 6.32182 17.1437 6.338 17.18C6.35418 17.2162 6.36149 17.2564 6.35924 17.2966C6.35698 17.3368 6.34523 17.3757 6.32511 17.4096C5.12938 19.4447 5.76755 21.6956 6.18404 23.9005C6.20643 24.0218 6.27435 24.0711 6.38781 24.0484L11.6051 23.037C11.6768 23.0224 11.7081 22.9755 11.6992 22.8963ZM5.03981 17.822L1.56459 18.5448C1.52554 18.5531 1.48911 18.5721 1.45877 18.6C1.42842 18.6278 1.40518 18.6637 1.39126 18.7041C1.37734 18.7444 1.3732 18.788 1.37924 18.8306C1.38528 18.8732 1.4013 18.9134 1.42576 18.9474C2.58118 20.5677 2.62597 22.5616 3.00439 24.6233C3.10739 25.1861 3.19845 25.7512 3.27757 26.3188C3.47313 27.7208 3.70152 29.1179 3.96276 30.5102C4.25386 32.0699 4.54047 33.5034 4.08144 35.0315C4.0486 35.1415 4.0807 35.2183 4.17773 35.262C4.24938 35.2943 4.35388 35.3016 4.49121 35.2838C5.66903 35.1285 6.82296 34.9046 7.953 34.6119C7.97656 34.606 7.99829 34.5935 8.01604 34.5757C8.03378 34.5579 8.04693 34.5354 8.05417 34.5104C8.06141 34.4854 8.06249 34.4588 8.05732 34.4332C8.05214 34.4076 8.04088 34.3839 8.02465 34.3645C7.07524 33.2342 6.99015 32.2882 6.64084 30.4423C6.42737 29.3168 6.24823 28.1946 6.10343 27.0756C6.09155 26.9826 6.11311 26.8882 6.16361 26.8123C6.21411 26.7363 6.28963 26.6847 6.37437 26.6681L12.465 25.5062C12.5121 25.4973 12.5603 25.4987 12.607 25.5104C12.6536 25.5221 12.6976 25.5439 12.7364 25.5744C12.7752 25.6049 12.808 25.6436 12.8329 25.6881C12.8579 25.7326 12.8744 25.7821 12.8815 25.8337C12.986 26.605 13.1016 27.3553 13.2285 28.0846C13.3024 28.5212 13.3226 29.0718 13.4256 29.5521C13.7144 30.9104 13.7525 31.9704 13.3898 33.3457C13.3818 33.3761 13.381 33.4082 13.3876 33.4389C13.3941 33.4697 13.4078 33.4981 13.4272 33.5216C13.4467 33.5451 13.4713 33.5629 13.4988 33.5733C13.5263 33.5837 13.5558 33.5863 13.5846 33.581L17.1001 32.897C17.1358 32.8897 17.1693 32.8729 17.1975 32.8481C17.2257 32.8233 17.2477 32.7913 17.2615 32.7551C17.2754 32.7189 17.2805 32.6796 17.2766 32.6408C17.2726 32.602 17.2597 32.565 17.2389 32.5332C16.706 31.706 16.3567 30.9032 16.1999 29.8432C15.985 28.3878 15.676 26.9276 15.5439 25.4626C15.4588 24.519 15.1139 23.607 14.9997 22.7435C14.934 22.239 14.8475 21.7377 14.74 21.2396C14.6213 20.6939 14.5922 20.1578 14.5116 19.6023C14.3414 18.4647 14.3616 17.4751 14.6101 16.4127C14.6197 16.3721 14.6198 16.3296 14.6103 16.289C14.6008 16.2485 14.582 16.2111 14.5557 16.1805C14.5294 16.1498 14.4964 16.1268 14.4597 16.1135C14.4231 16.1003 14.3839 16.0972 14.3459 16.1046L10.8483 16.762C10.8246 16.7663 10.8023 16.7769 10.7833 16.7929C10.7644 16.8089 10.7493 16.8297 10.7393 16.8536C10.7294 16.8774 10.725 16.9037 10.7264 16.93C10.7278 16.9563 10.7351 16.9819 10.7475 17.0045C11.2872 17.982 11.7238 18.8698 11.8917 20.0438C11.9903 20.7359 12.0851 21.4288 12.1761 22.1225C12.2231 22.4718 12.4224 22.9497 12.3709 23.4129C12.359 23.5213 12.3037 23.5843 12.2052 23.6021L5.92429 24.8101C5.87308 24.8199 5.82037 24.8086 5.77676 24.7785C5.73315 24.7484 5.70187 24.7016 5.68918 24.6476C5.50109 23.8617 5.38913 22.9666 5.28165 22.2972C5.10997 21.2412 5.04205 20.1748 5.07788 19.0978C5.09131 18.7485 5.27269 18.3192 5.1988 17.9335C5.19128 17.896 5.17034 17.8631 5.14055 17.8422C5.11076 17.8213 5.07454 17.814 5.03981 17.822Z" fill="white"/>
<path d="M85.5215 15.8063C87.5346 16.289 88.99 18.4284 89.1804 20.5677C89.2923 21.8387 89.2766 23.5294 88.99 24.747C88.4213 27.1702 86.6747 29.4866 84.1959 29.62C83.3555 29.6653 82.5427 29.5578 81.7574 29.2974C81.2081 29.1147 80.7312 28.7978 80.3266 28.3466C79.8549 27.8178 79.4615 27.23 79.1466 26.5832C78.8644 26.0027 78.6868 25.3162 78.6136 24.5239C78.542 23.7444 78.5173 22.9618 78.5397 22.1759C78.5547 21.6746 78.6442 21.1369 78.8084 20.5629C79.0055 19.8667 79.1712 19.1051 79.4891 18.4987C80.7774 16.0472 82.7882 15.1498 85.5215 15.8063ZM79.6526 26.2291C80.7073 28.7881 83.6585 29.7098 85.8373 28.4655C88.8982 26.7118 89.6685 20.6308 87.5099 17.8899C86.256 16.2963 84.0549 15.8378 82.2971 16.5801C79.1734 17.8996 78.4569 23.3329 79.6526 26.2291Z" fill="white"/>
<path d="M96.7996 31.0827C96.8205 31.0018 96.8645 30.9331 96.9317 30.8765C96.9989 30.8199 97.0399 30.7471 97.0549 30.6582L98.5798 21.8363C98.5902 21.7716 98.6208 21.7207 98.6716 21.6835C98.7119 21.6544 98.732 21.6051 98.732 21.5355C98.7343 20.6866 98.9582 19.7382 98.985 18.945C99.0097 18.1712 99.153 17.1137 98.7768 16.4345C98.7562 16.3968 98.7445 16.3541 98.7426 16.3103C98.7407 16.2665 98.7487 16.2229 98.7659 16.1832C98.7831 16.1435 98.809 16.109 98.8414 16.0826C98.8737 16.0562 98.9115 16.0388 98.9515 16.0319C99.4172 15.9543 99.7128 16.1216 100.064 16.175C100.787 16.2898 101.509 16.4095 102.23 16.534C102.821 16.6383 103.04 16.9657 103.172 17.6037C103.488 19.1197 103.934 20.3422 104.393 21.6932C104.787 22.8575 105.452 24.4438 105.846 25.8919C106.045 26.6293 106.336 27.306 106.569 28.0313C106.661 28.3175 106.58 28.6474 106.652 28.873C106.879 29.5893 107.065 30.3178 107.21 31.0584C107.283 31.4336 107.472 31.6066 107.776 31.5775C107.814 31.5744 107.849 31.5554 107.874 31.5246C107.899 31.4938 107.912 31.4536 107.91 31.4126C107.893 31.0439 107.828 30.7261 107.872 30.372C107.993 29.3872 108.044 28.3992 108.025 27.4079C108.023 27.3206 108.044 27.2405 108.087 27.1678C108.211 26.9527 108.265 26.7166 108.249 26.4595C108.244 26.3835 108.258 26.3123 108.289 26.246C108.58 25.6057 108.647 24.456 108.75 23.7404C108.753 23.7113 108.852 23.1364 109.048 22.0158C109.191 21.196 109.35 19.1682 109.037 18.4211C109.01 18.3565 109.001 18.2848 109.01 18.2146C109.02 18.1444 109.048 18.0788 109.091 18.0255C109.135 17.9723 109.191 17.9337 109.254 17.9143C109.317 17.895 109.384 17.8958 109.447 17.9166C110.347 18.2157 111.268 18.3435 112.21 18.2998C112.273 18.2966 112.335 18.3107 112.391 18.341C112.448 18.3712 112.496 18.4166 112.532 18.4727C112.567 18.5288 112.589 18.5938 112.595 18.6616C112.601 18.7294 112.591 18.7977 112.566 18.8601C112.466 19.1059 112.33 19.325 112.158 19.5174C112.104 19.5789 112.071 19.6509 112.057 19.7333C111.963 20.2961 111.659 20.6842 111.565 21.2008C111.372 22.2462 111.13 23.3014 110.98 24.325C110.558 27.1985 110.26 29.0654 110.087 29.9257C109.818 31.2549 109.667 32.3723 109.635 33.2778C109.612 33.86 109.803 34.447 109.894 35.0412C109.9 35.075 109.899 35.1098 109.89 35.143C109.882 35.1761 109.867 35.2069 109.846 35.2331C109.825 35.2593 109.799 35.2803 109.77 35.2945C109.741 35.3087 109.709 35.3158 109.677 35.3153C108.9 35.3008 108.103 35.0243 107.51 34.9369C106.894 34.8472 106.155 34.8472 105.969 34.2723C105.828 33.8406 105.759 33.3967 105.615 32.9916C105.148 31.6769 104.666 30.3687 104.169 29.067C104.09 28.86 104.028 28.6466 103.985 28.4267C103.97 28.349 103.939 28.2803 103.891 28.2205C103.506 27.7426 103.513 27.1702 103.293 26.6924C102.839 25.7027 102.653 24.6718 102.348 23.6555C101.975 22.4088 101.714 21.1353 101.565 19.8352C101.532 19.5409 101.392 19.3921 101.146 19.3889C101.101 19.3882 101.058 19.4062 101.025 19.4391C100.992 19.4721 100.972 19.5175 100.969 19.566C100.918 20.3761 100.882 21.1741 100.861 21.96C100.85 22.3845 100.676 22.8454 100.631 23.2577C100.391 25.431 99.9658 27.551 99.6098 30.1852C99.4709 31.2064 99.4956 32.1184 99.6187 33.0814C99.6238 33.12 99.6204 33.1593 99.6089 33.1962C99.5974 33.2331 99.5781 33.2665 99.5526 33.2937C99.527 33.3209 99.496 33.3411 99.462 33.3527C99.4279 33.3643 99.3919 33.3669 99.3567 33.3603L96.2644 32.8194C96.2228 32.812 96.1836 32.793 96.1508 32.7641C96.1181 32.7353 96.0928 32.6977 96.0777 32.655C96.0625 32.6123 96.0579 32.5661 96.0644 32.5209C96.0708 32.4757 96.0881 32.4331 96.1144 32.3973C96.3943 32.0117 96.6787 31.5775 96.7996 31.0827Z" fill="white"/>
<path d="M5.04023 17.822C5.07496 17.814 5.11117 17.8213 5.14096 17.8422C5.17075 17.8631 5.19169 17.896 5.19921 17.9335C5.2731 18.3192 5.09173 18.7485 5.07829 19.0978C5.04246 20.1748 5.11039 21.2412 5.28206 22.2972C5.38954 22.9666 5.5015 23.8617 5.68959 24.6476C5.70228 24.7016 5.73357 24.7484 5.77718 24.7785C5.82079 24.8086 5.87349 24.8199 5.9247 24.8101L12.2056 23.6021C12.3042 23.5844 12.3594 23.5213 12.3713 23.4129C12.4228 22.9497 12.2235 22.4718 12.1765 22.1225C12.0855 21.4288 11.9907 20.7359 11.8921 20.0438C11.7242 18.8698 11.2876 17.982 10.7479 17.0045C10.7355 16.9819 10.7282 16.9563 10.7268 16.93C10.7254 16.9037 10.7298 16.8774 10.7397 16.8536C10.7497 16.8297 10.7648 16.8089 10.7837 16.7929C10.8027 16.7769 10.825 16.7663 10.8487 16.762L14.3463 16.1046C14.3843 16.0972 14.4235 16.1003 14.4601 16.1135C14.4968 16.1268 14.5298 16.1498 14.5561 16.1805C14.5824 16.2111 14.6012 16.2485 14.6107 16.289C14.6202 16.3296 14.6201 16.3721 14.6105 16.4127C14.362 17.4751 14.3418 18.4647 14.512 19.6023C14.5926 20.1578 14.6217 20.6939 14.7404 21.2396C14.8479 21.7377 14.9345 22.239 15.0001 22.7435C15.1143 23.607 15.4592 24.519 15.5443 25.4626C15.6764 26.9276 15.9854 28.3878 16.2003 29.8432C16.3571 30.9032 16.7064 31.706 17.2393 32.5332C17.2601 32.565 17.273 32.602 17.277 32.6408C17.2809 32.6796 17.2758 32.7189 17.262 32.7551C17.2481 32.7913 17.2261 32.8233 17.1979 32.8481C17.1697 32.8729 17.1362 32.8897 17.1005 32.897L13.585 33.581C13.5562 33.5863 13.5268 33.5837 13.4992 33.5733C13.4717 33.5629 13.4471 33.5451 13.4276 33.5216C13.4082 33.4981 13.3945 33.4697 13.388 33.4389C13.3814 33.4082 13.3822 33.3761 13.3902 33.3457C13.7529 31.9704 13.7148 30.9104 13.426 29.5521C13.323 29.0718 13.3028 28.5212 13.2289 28.0846C13.1021 27.3553 12.9864 26.605 12.8819 25.8337C12.8748 25.7821 12.8583 25.7326 12.8334 25.6881C12.8084 25.6436 12.7756 25.6049 12.7368 25.5744C12.698 25.5439 12.654 25.5221 12.6074 25.5104C12.5607 25.4987 12.5125 25.4973 12.4654 25.5062L6.37478 26.6681C6.29004 26.6847 6.21452 26.7363 6.16402 26.8123C6.11353 26.8882 6.09196 26.9826 6.10384 27.0756C6.24864 28.1946 6.42778 29.3168 6.64125 30.4423C6.99056 32.2882 7.07565 33.2342 8.02506 34.3645C8.04129 34.3839 8.05255 34.4076 8.05773 34.4332C8.06291 34.4588 8.06182 34.4854 8.05458 34.5104C8.04734 34.5354 8.0342 34.5579 8.01645 34.5757C7.99871 34.5935 7.97698 34.606 7.95341 34.6119C6.82337 34.9046 5.66944 35.1286 4.49162 35.2838C4.35429 35.3016 4.24979 35.2943 4.17814 35.262C4.08111 35.2183 4.04901 35.1415 4.08185 35.0315C4.54089 33.5034 4.25427 32.0699 3.96318 30.5102C3.70194 29.1179 3.47354 27.7208 3.27798 26.3188C3.19887 25.7512 3.10781 25.1861 3.0048 24.6233C2.62638 22.5616 2.58159 20.5677 1.42617 18.9474C1.40171 18.9134 1.38569 18.8732 1.37965 18.8306C1.37361 18.788 1.37775 18.7444 1.39167 18.7041C1.4056 18.6637 1.42884 18.6278 1.45918 18.6C1.48952 18.5721 1.52595 18.5531 1.565 18.5448L5.04023 17.822Z" fill="white"/>
<path d="M36.5285 42.1797C36.5377 42.1623 36.5407 42.1419 36.537 42.1223C36.5333 42.1026 36.5231 42.0851 36.5083 42.073C35.1335 40.9282 34.4998 38.7039 35.1895 36.9186C35.7582 35.4463 37.6167 35.0146 38.4027 36.3971C39.2357 37.8646 38.7184 40.4479 38.0534 41.879C37.3861 43.3101 36.4374 44.3862 35.2074 45.1074C32.9883 46.4051 30.3506 45.7017 29.9901 42.6527C29.643 39.6935 32.2606 36.0721 34.9969 35.57C35.2492 35.5247 35.2932 35.608 35.129 35.8199C34.5311 36.5912 33.6444 37.1709 33.1204 37.8331C32.1195 39.1017 31.2328 41.3259 31.6717 42.9923C31.9314 43.9771 32.5875 44.7509 33.584 44.6878C34.8043 44.6102 35.9553 43.2882 36.5285 42.1797ZM36.9942 41.1998C37.3368 40.3969 38.3445 36.8677 36.7994 36.7222C36.327 36.6761 35.9261 37.2243 35.8299 37.6633C35.5328 39.0184 35.8396 40.2118 36.7502 41.2435C36.767 41.2625 36.7879 41.2768 36.811 41.2851C36.8342 41.2934 36.8588 41.2955 36.8828 41.2912C36.9068 41.2869 36.9295 41.2764 36.949 41.2604C36.9684 41.2445 36.9839 41.2237 36.9942 41.1998Z" fill="white"/>
<path d="M52.7856 44.632C54.2008 44.877 55.6003 44.0887 56.6594 43.0797C56.8549 42.8937 56.9818 42.9382 57.04 43.2131L57.0736 43.3683C57.1274 43.6222 57.0609 43.8324 56.8744 43.9989C55.7055 45.0444 54.4672 45.6629 53.0386 45.6944C49.8052 45.7648 48.8245 42.4975 49.8007 39.7129C50.7748 36.9405 53.2312 35.1989 56.0526 35.587C57.8103 35.832 58.9635 37.6269 57.573 39.2569C57.1938 39.7 56.8482 39.987 56.5362 40.118C55.9361 40.367 55.8145 40.2021 56.1712 39.6232C56.3437 39.3442 56.6639 38.6238 56.6571 38.2066C56.646 37.462 55.7951 37.0011 55.2084 37.0132C53.3521 37.0521 51.7488 38.5026 51.0838 40.3387C50.4456 42.0997 50.7838 44.2852 52.7856 44.632Z" fill="white"/>
<path d="M60.2786 40.1786C61.8752 39.3491 63.4023 40.0355 62.5693 42.204C62.3678 42.7296 62.164 43.2527 61.958 43.7734C61.8117 44.1437 61.8498 44.421 62.0722 44.6054C62.5044 44.9643 63.1941 44.552 63.5255 44.2003C63.5807 44.1421 63.5956 44.0733 63.5702 43.9941C62.7709 41.5928 64.6809 39.6911 66.7969 39.856C68.4338 39.9846 68.4315 41.7723 67.2828 42.6334C66.629 43.1217 65.9624 43.5688 65.2832 43.9747C65.2621 43.9875 65.2439 44.0051 65.2299 44.0264C65.2159 44.0477 65.2064 44.0721 65.2021 44.0979C65.1978 44.1236 65.1989 44.1501 65.2052 44.1753C65.2114 44.2006 65.2228 44.224 65.2384 44.2439C66.1162 45.3427 67.5874 44.7266 68.4517 44.0038C68.5159 43.9504 68.542 43.8809 68.53 43.7952C68.3614 42.521 68.5495 41.3138 69.0943 40.1738C69.1184 40.122 69.1557 40.0785 69.202 40.0481C69.2482 40.0177 69.3016 40.0016 69.3563 40.0016L70.3304 40.004C70.352 40.0038 70.3734 40.0094 70.3926 40.0204C70.4117 40.0314 70.4281 40.0474 70.4403 40.067C70.4524 40.0867 70.46 40.1094 70.4623 40.133C70.4646 40.1567 70.4616 40.1807 70.4535 40.2029C69.8333 41.8256 69.4168 42.9923 69.999 44.4695C70.0117 44.5024 70.0305 44.5322 70.0543 44.5571C70.078 44.582 70.1061 44.6014 70.137 44.6143C70.1679 44.6272 70.201 44.6333 70.2342 44.6322C70.2674 44.631 70.3001 44.6227 70.3304 44.6078L71.2843 44.1299C71.3634 44.0911 71.3962 44.0248 71.3828 43.931C71.2007 42.5582 71.397 41.2508 71.9717 40.0089C71.9896 39.9701 72.018 39.9506 72.0568 39.9506L73.3062 39.9264C73.3157 39.9266 73.3249 39.9293 73.3331 39.9344C73.3412 39.9395 73.3481 39.9467 73.353 39.9554C73.3579 39.9641 73.3607 39.974 73.3612 39.9842C73.3616 39.9944 73.3597 40.0045 73.3555 40.0137C72.6255 41.5661 72.1463 43.1451 72.9233 44.5908C72.9577 44.6522 73.004 44.6668 73.0622 44.6345C74.1937 44.0184 75.07 43.1136 75.691 41.9202C75.9537 41.4141 75.8828 41.0478 75.4783 40.8214C75.4023 40.779 75.3171 40.7599 75.2318 40.7662C75.1466 40.7726 75.0645 40.8041 74.9946 40.8573C74.9247 40.9105 74.8696 40.9835 74.8353 41.0682C74.8009 41.153 74.7886 41.2463 74.7998 41.3381L74.8602 41.8256C74.8661 41.8727 74.8605 41.9206 74.8441 41.9647C74.8277 42.0087 74.801 42.0475 74.7666 42.0772C74.7322 42.107 74.6912 42.1267 74.6476 42.1344C74.604 42.1422 74.5592 42.1377 74.5176 42.1215C74.0922 41.9518 73.9593 41.5184 74.1191 40.8214C74.4953 39.1696 76.9673 39.1648 77.0905 41.0494C77.1621 42.1652 76.4747 43.1985 75.729 43.9407C75.6768 43.9941 75.6529 44.0588 75.6574 44.1348C75.6783 44.4728 75.8223 44.6733 76.0896 44.7363C76.9181 44.9352 77.7734 43.9141 78.2056 43.2349C78.8878 42.1612 79.5752 41.0907 80.2679 40.0234C80.29 39.9897 80.3195 39.9622 80.3538 39.9432C80.388 39.9243 80.4261 39.9143 80.4649 39.9143L82.1331 39.9337C82.2391 39.9353 82.2742 39.9903 82.2384 40.0986C82.066 40.6104 82.5048 41.0955 82.7153 41.5079C84.4373 44.8819 79.9096 47.1935 78.8527 44.6248C78.8461 44.6096 78.8365 44.5963 78.8246 44.5856C78.8127 44.575 78.7988 44.5673 78.7838 44.5631C78.7688 44.5589 78.7532 44.5584 78.738 44.5615C78.7228 44.5646 78.7085 44.5713 78.696 44.5811C77.7712 45.3161 76.2015 46.279 74.9655 45.5271C74.7684 45.4058 74.6498 45.1147 74.4393 44.9328C74.3706 44.873 74.3019 44.8722 74.2333 44.9304C73.7809 45.3039 73.2756 45.5578 72.7173 45.692C72.6743 45.7027 72.6296 45.7034 72.586 45.6942C72.5425 45.685 72.501 45.6661 72.4643 45.6387C72.2762 45.4964 72.121 45.3185 71.9986 45.105C71.9683 45.0524 71.9222 45.0129 71.8681 44.9934C71.8141 44.9739 71.7557 44.9756 71.703 44.9983L69.9922 45.7308C69.969 45.7408 69.944 45.7453 69.9189 45.7441C69.8939 45.7428 69.8692 45.7358 69.8467 45.7236C69.5004 45.5344 69.2414 45.2562 69.0697 44.8892C69.0533 44.8548 69.0301 44.8249 69.0017 44.8014C68.9734 44.7779 68.9406 44.7615 68.9057 44.7534C68.8708 44.7453 68.8347 44.7457 68.7999 44.7545C68.7652 44.7632 68.7327 44.7802 68.7047 44.8043C67.4776 45.8691 65.3616 46.2062 64.1188 44.9352C64.0955 44.9112 64.0655 44.896 64.0333 44.8916C64.0012 44.8872 63.9684 44.894 63.9397 44.911C62.9836 45.4592 61.9312 46.2693 60.9258 45.2991C60.0032 44.4089 61.0198 42.6479 61.3557 41.554C61.5199 41.0122 61.3393 40.7503 60.8138 40.7681L60.7444 40.7705C60.2189 40.7867 59.8547 41.0583 59.6517 41.5855C59.3471 42.3779 59.0389 43.1678 58.7269 43.9553C58.5612 44.3725 58.606 44.666 58.8433 45.0056C58.8671 45.0398 58.8837 45.0791 58.8918 45.1206C58.8999 45.1621 58.8994 45.2049 58.8903 45.2457C58.853 45.4058 58.7836 45.5473 58.6821 45.6702C58.6269 45.7365 58.5597 45.7551 58.4806 45.726C57.4222 45.3233 57.1154 44.535 57.5603 43.361C58.4619 40.9823 59.3703 38.6036 60.2854 36.2249C60.3003 36.1877 60.3257 36.1691 60.3615 36.1691L61.6087 36.1594C61.6225 36.1594 61.6362 36.1631 61.6484 36.1702C61.6605 36.1772 61.6709 36.1875 61.6785 36.2001C61.686 36.2126 61.6906 36.227 61.6917 36.2419C61.6928 36.2569 61.6905 36.2719 61.6849 36.2856L60.1958 40.0938C60.1907 40.1061 60.1893 40.1199 60.1917 40.1332C60.1942 40.1465 60.2004 40.1587 60.2095 40.168C60.2186 40.1773 60.2301 40.1833 60.2425 40.1852C60.2549 40.1871 60.2675 40.1848 60.2786 40.1786ZM65.0168 43.1912C65.5519 42.8274 66.105 42.4805 66.6178 42.0755C66.7909 41.938 66.888 41.7601 66.9089 41.5418C67.0477 40.1423 64.4749 40.8845 64.7413 43.0506C64.7454 43.0831 64.7569 43.1139 64.7748 43.1404C64.7926 43.1669 64.8164 43.188 64.8437 43.202C64.8711 43.216 64.9013 43.2224 64.9315 43.2205C64.9617 43.2186 64.991 43.2085 65.0168 43.1912ZM79.9141 43.4532C79.2199 44.9789 81.2755 45.2045 81.7614 43.9844C82.1488 43.0093 81.1591 42.0027 80.8747 41.1125C80.8717 41.1032 80.8663 41.0949 80.8592 41.0887C80.8521 41.0825 80.8436 41.0785 80.8345 41.0773C80.8254 41.076 80.8162 41.0775 80.8079 41.0816C80.7996 41.0857 80.7925 41.0922 80.7874 41.1004L79.5379 42.9948C79.5219 43.0201 79.5134 43.0501 79.5136 43.0808C79.5138 43.1115 79.5226 43.1414 79.5389 43.1665C79.5553 43.1916 79.5783 43.2106 79.6049 43.2211C79.6316 43.2316 79.6605 43.2331 79.6879 43.2252C79.7536 43.2058 79.8156 43.2187 79.8738 43.264C79.935 43.3141 79.9484 43.3772 79.9141 43.4532Z" fill="white"/>
<path d="M39.8073 40.6541L39.2587 40.6904C39.1019 40.7001 39.0452 40.6233 39.0885 40.46L39.1109 40.3703C39.1316 40.292 39.1701 40.2205 39.2228 40.1621C39.2756 40.1037 39.341 40.0602 39.4132 40.0355C40.1208 39.8011 40.7567 39.924 41.321 40.4042C41.36 40.4373 41.4081 40.4552 41.4576 40.4552C41.5071 40.4552 41.5552 40.4373 41.5942 40.4042C42.1017 39.9806 42.6488 39.7978 43.2355 39.856C46.1935 40.1495 42.1316 44.6514 43.9364 44.7436C44.4357 44.7703 45.3784 44.0062 45.7501 43.7127C45.8621 43.6238 45.9337 43.6529 45.9651 43.8001L46.0614 44.2342C46.0942 44.3846 46.0494 44.5002 45.927 44.5811C44.9933 45.1948 43.5669 46.3688 42.5122 45.4179C41.527 44.5277 42.5928 42.5048 42.9399 41.4205C43.1071 40.9015 42.9429 40.701 42.4473 40.819L42.1674 40.8845C41.9385 40.939 41.7255 41.0533 41.5471 41.2174C41.3687 41.3814 41.2303 41.5903 41.1441 41.8256C40.7933 42.7862 40.4858 43.606 40.2215 44.2852C40.1245 44.531 40.1783 44.725 40.3828 44.8673C40.4544 44.9174 40.4895 44.9886 40.488 45.0808C40.485 45.2878 40.4283 45.4737 40.3178 45.6386C40.2641 45.7195 40.1924 45.7462 40.1029 45.7187C37.7025 44.9862 40.0088 42.2307 39.964 40.8093C39.9635 40.7878 39.9589 40.7667 39.9507 40.7472C39.9424 40.7277 39.9307 40.7102 39.916 40.6957C39.9014 40.6812 39.8843 40.6701 39.8656 40.6629C39.8469 40.6558 39.8271 40.6528 39.8073 40.6541Z" fill="white"/>
</svg>
